<svg width="157" height="184" viewBox="0 0 157 184" fill="none" xmlns="http://www.w3.org/2000/svg">
<path fill-rule="evenodd" clip-rule="evenodd" d="M-25 4C-23.8954 4 -23 3.10457 -23 2C-23 0.895431 -23.8954 0 -25 0C-26.1046 0 -27 0.895431 -27 2C-27 3.10457 -26.1046 4 -25 4ZM-25 84C-23.8954 84 -23 83.1046 -23 82C-23 80.8954 -23.8954 80 -25 80C-26.1046 80 -27 80.8954 -27 82C-27 83.1046 -26.1046 84 -25 84ZM-23 42C-23 43.1046 -23.8954 44 -25 44C-26.1046 44 -27 43.1046 -27 42C-27 40.8954 -26.1046 40 -25 40C-23.8954 40 -23 40.8954 -23 42ZM-25 124C-23.8954 124 -23 123.105 -23 122C-23 120.895 -23.8954 120 -25 120C-26.1046 120 -27 120.895 -27 122C-27 123.105 -26.1046 124 -25 124ZM-23 182C-23 183.105 -23.8954 184 -25 184C-26.1046 184 -27 183.105 -27 182C-27 180.895 -26.1046 180 -25 180C-23.8954 180 -23 180.895 -23 182ZM-25 24C-23.8954 24 -23 23.1046 -23 22C-23 20.8954 -23.8954 20 -25 20C-26.1046 20 -27 20.8954 -27 22C-27 23.1046 -26.1046 24 -25 24ZM-23 102C-23 103.105 -23.8954 104 -25 104C-26.1046 104 -27 103.105 -27 102C-27 100.895 -26.1046 100 -25 100C-23.8954 100 -23 100.895 -23 102ZM-25 164C-23.8954 164 -23 163.105 -23 162C-23 160.895 -23.8954 160 -25 160C-26.1046 160 -27 160.895 -27 162C-27 163.105 -26.1046 164 -25 164ZM-23 62C-23 63.1046 -23.8954 64 -25 64C-26.1046 64 -27 63.1046 -27 62C-27 60.8954 -26.1046 60 -25 60C-23.8954 60 -23 60.8954 -23 62ZM-25 144C-23.8954 144 -23 143.105 -23 142C-23 140.895 -23.8954 140 -25 140C-26.1046 140 -27 140.895 -27 142C-27 143.105 -26.1046 144 -25 144ZM57 2C57 3.10457 56.1046 4 55 4C53.8954 4 53 3.10457 53 2C53 0.895431 53.8954 0 55 0C56.1046 0 57 0.895431 57 2ZM55 84C56.1046 84 57 83.1046 57 82C57 80.8954 56.1046 80 55 80C53.8954 80 53 80.8954 53 82C53 83.1046 53.8954 84 55 84ZM57 42C57 43.1046 56.1046 44 55 44C53.8954 44 53 43.1046 53 42C53 40.8954 53.8954 40 55 40C56.1046 40 57 40.8954 57 42ZM55 124C56.1046 124 57 123.105 57 122C57 120.895 56.1046 120 55 120C53.8954 120 53 120.895 53 122C53 123.105 53.8954 124 55 124ZM57 182C57 183.105 56.1046 184 55 184C53.8954 184 53 183.105 53 182C53 180.895 53.8954 180 55 180C56.1046 180 57 180.895 57 182ZM55 24C56.1046 24 57 23.1046 57 22C57 20.8954 56.1046 20 55 20C53.8954 20 53 20.8954 53 22C53 23.1046 53.8954 24 55 24ZM57 102C57 103.105 56.1046 104 55 104C53.8954 104 53 103.105 53 102C53 100.895 53.8954 100 55 100C56.1046 100 57 100.895 57 102ZM55 164C56.1046 164 57 163.105 57 162C57 160.895 56.1046 160 55 160C53.8954 160 53 160.895 53 162C53 163.105 53.8954 164 55 164ZM57 62C57 63.1046 56.1046 64 55 64C53.8954 64 53 63.1046 53 62C53 60.8954 53.8954 60 55 60C56.1046 60 57 60.8954 57 62ZM55 144C56.1046 144 57 143.105 57 142C57 140.895 56.1046 140 55 140C53.8954 140 53 140.895 53 142C53 143.105 53.8954 144 55 144ZM17 2C17 3.10457 16.1046 4 15 4C13.8954 4 13 3.10457 13 2C13 0.895431 13.8954 0 15 0C16.1046 0 17 0.895431 17 2ZM15 84C16.1046 84 17 83.1046 17 82C17 80.8954 16.1046 80 15 80C13.8954 80 13 80.8954 13 82C13 83.1046 13.8954 84 15 84ZM17 42C17 43.1046 16.1046 44 15 44C13.8954 44 13 43.1046 13 42C13 40.8954 13.8954 40 15 40C16.1046 40 17 40.8954 17 42ZM15 124C16.1046 124 17 123.105 17 122C17 120.895 16.1046 120 15 120C13.8954 120 13 120.895 13 122C13 123.105 13.8954 124 15 124ZM17 182C17 183.105 16.1046 184 15 184C13.8954 184 13 183.105 13 182C13 180.895 13.8954 180 15 180C16.1046 180 17 180.895 17 182ZM15 24C16.1046 24 17 23.1046 17 22C17 20.8954 16.1046 20 15 20C13.8954 20 13 20.8954 13 22C13 23.1046 13.8954 24 15 24ZM17 102C17 103.105 16.1046 104 15 104C13.8954 104 13 103.105 13 102C13 100.895 13.8954 100 15 100C16.1046 100 17 100.895 17 102ZM15 164C16.1046 164 17 163.105 17 162C17 160.895 16.1046 160 15 160C13.8954 160 13 160.895 13 162C13 163.105 13.8954 164 15 164ZM17 62C17 63.1046 16.1046 64 15 64C13.8954 64 13 63.1046 13 62C13 60.8954 13.8954 60 15 60C16.1046 60 17 60.8954 17 62ZM15 144C16.1046 144 17 143.105 17 142C17 140.895 16.1046 140 15 140C13.8954 140 13 140.895 13 142C13 143.105 13.8954 144 15 144ZM97 2C97 3.10457 96.1046 4 95 4C93.8954 4 93 3.10457 93 2C93 0.895431 93.8954 0 95 0C96.1046 0 97 0.895431 97 2ZM95 84C96.1046 84 97 83.1046 97 82C97 80.8954 96.1046 80 95 80C93.8954 80 93 80.8954 93 82C93 83.1046 93.8954 84 95 84ZM97 42C97 43.1046 96.1046 44 95 44C93.8954 44 93 43.1046 93 42C93 40.8954 93.8954 40 95 40C96.1046 40 97 40.8954 97 42ZM95 124C96.1046 124 97 123.105 97 122C97 120.895 96.1046 120 95 120C93.8954 120 93 120.895 93 122C93 123.105 93.8954 124 95 124ZM97 182C97 183.105 96.1046 184 95 184C93.8954 184 93 183.105 93 182C93 180.895 93.8954 180 95 180C96.1046 180 97 180.895 97 182ZM95 24C96.1046 24 97 23.1046 97 22C97 20.8954 96.1046 20 95 20C93.8954 20 93 20.8954 93 22C93 23.1046 93.8954 24 95 24ZM97 102C97 103.105 96.1046 104 95 104C93.8954 104 93 103.105 93 102C93 100.895 93.8954 100 95 100C96.1046 100 97 100.895 97 102ZM95 164C96.1046 164 97 163.105 97 162C97 160.895 96.1046 160 95 160C93.8954 160 93 160.895 93 162C93 163.105 93.8954 164 95 164ZM97 62C97 63.1046 96.1046 64 95 64C93.8954 64 93 63.1046 93 62C93 60.8954 93.8954 60 95 60C96.1046 60 97 60.8954 97 62ZM95 144C96.1046 144 97 143.105 97 142C97 140.895 96.1046 140 95 140C93.8954 140 93 140.895 93 142C93 143.105 93.8954 144 95 144ZM137 2C137 3.10457 136.105 4 135 4C133.895 4 133 3.10457 133 2C133 0.895431 133.895 0 135 0C136.105 0 137 0.895431 137 2ZM135 84C136.105 84 137 83.1046 137 82C137 80.8954 136.105 80 135 80C133.895 80 133 80.8954 133 82C133 83.1046 133.895 84 135 84ZM137 42C137 43.1046 136.105 44 135 44C133.895 44 133 43.1046 133 42C133 40.8954 133.895 40 135 40C136.105 40 137 40.8954 137 42ZM135 124C136.105 124 137 123.105 137 122C137 120.895 136.105 120 135 120C133.895 120 133 120.895 133 122C133 123.105 133.895 124 135 124ZM137 182C137 183.105 136.105 184 135 184C133.895 184 133 183.105 133 182C133 180.895 133.895 180 135 180C136.105 180 137 180.895 137 182ZM135 24C136.105 24 137 23.1046 137 22C137 20.8954 136.105 20 135 20C133.895 20 133 20.8954 133 22C133 23.1046 133.895 24 135 24ZM137 102C137 103.105 136.105 104 135 104C133.895 104 133 103.105 133 102C133 100.895 133.895 100 135 100C136.105 100 137 100.895 137 102ZM135 164C136.105 164 137 163.105 137 162C137 160.895 136.105 160 135 160C133.895 160 133 160.895 133 162C133 163.105 133.895 164 135 164ZM137 62C137 63.1046 136.105 64 135 64C133.895 64 133 63.1046 133 62C133 60.8954 133.895 60 135 60C136.105 60 137 60.8954 137 62ZM135 144C136.105 144 137 143.105 137 142C137 140.895 136.105 140 135 140C133.895 140 133 140.895 133 142C133 143.105 133.895 144 135 144ZM-3 2C-3 3.10457 -3.89543 4 -5 4C-6.10457 4 -7 3.10457 -7 2C-7 0.895431 -6.10457 0 -5 0C-3.89543 0 -3 0.895431 -3 2ZM-5 84C-3.89543 84 -3 83.1046 -3 82C-3 80.8954 -3.89543 80 -5 80C-6.10457 80 -7 80.8954 -7 82C-7 83.1046 -6.10457 84 -5 84ZM-3 42C-3 43.1046 -3.89543 44 -5 44C-6.10457 44 -7 43.1046 -7 42C-7 40.8954 -6.10457 40 -5 40C-3.89543 40 -3 40.8954 -3 42ZM-5 124C-3.89543 124 -3 123.105 -3 122C-3 120.895 -3.89543 120 -5 120C-6.10457 120 -7 120.895 -7 122C-7 123.105 -6.10457 124 -5 124ZM-3 182C-3 183.105 -3.89543 184 -5 184C-6.10457 184 -7 183.105 -7 182C-7 180.895 -6.10457 180 -5 180C-3.89543 180 -3 180.895 -3 182ZM-5 24C-3.89543 24 -3 23.1046 -3 22C-3 20.8954 -3.89543 20 -5 20C-6.10457 20 -7 20.8954 -7 22C-7 23.1046 -6.10457 24 -5 24ZM-3 102C-3 103.105 -3.89543 104 -5 104C-6.10457 104 -7 103.105 -7 102C-7 100.895 -6.10457 100 -5 100C-3.89543 100 -3 100.895 -3 102ZM-5 164C-3.89543 164 -3 163.105 -3 162C-3 160.895 -3.89543 160 -5 160C-6.10457 160 -7 160.895 -7 162C-7 163.105 -6.10457 164 -5 164ZM-3 62C-3 63.1046 -3.89543 64 -5 64C-6.10457 64 -7 63.1046 -7 62C-7 60.8954 -6.10457 60 -5 60C-3.89543 60 -3 60.8954 -3 62ZM-5 144C-3.89543 144 -3 143.105 -3 142C-3 140.895 -3.89543 140 -5 140C-6.10457 140 -7 140.895 -7 142C-7 143.105 -6.10457 144 -5 144ZM77 2C77 3.10457 76.1046 4 75 4C73.8954 4 73 3.10457 73 2C73 0.895431 73.8954 0 75 0C76.1046 0 77 0.895431 77 2ZM75 84C76.1046 84 77 83.1046 77 82C77 80.8954 76.1046 80 75 80C73.8954 80 73 80.8954 73 82C73 83.1046 73.8954 84 75 84ZM77 42C77 43.1046 76.1046 44 75 44C73.8954 44 73 43.1046 73 42C73 40.8954 73.8954 40 75 40C76.1046 40 77 40.8954 77 42ZM75 124C76.1046 124 77 123.105 77 122C77 120.895 76.1046 120 75 120C73.8954 120 73 120.895 73 122C73 123.105 73.8954 124 75 124ZM77 182C77 183.105 76.1046 184 75 184C73.8954 184 73 183.105 73 182C73 180.895 73.8954 180 75 180C76.1046 180 77 180.895 77 182ZM75 24C76.1046 24 77 23.1046 77 22C77 20.8954 76.1046 20 75 20C73.8954 20 73 20.8954 73 22C73 23.1046 73.8954 24 75 24ZM77 102C77 103.105 76.1046 104 75 104C73.8954 104 73 103.105 73 102C73 100.895 73.8954 100 75 100C76.1046 100 77 100.895 77 102ZM75 164C76.1046 164 77 163.105 77 162C77 160.895 76.1046 160 75 160C73.8954 160 73 160.895 73 162C73 163.105 73.8954 164 75 164ZM77 62C77 63.1046 76.1046 64 75 64C73.8954 64 73 63.1046 73 62C73 60.8954 73.8954 60 75 60C76.1046 60 77 60.8954 77 62ZM75 144C76.1046 144 77 143.105 77 142C77 140.895 76.1046 140 75 140C73.8954 140 73 140.895 73 142C73 143.105 73.8954 144 75 144ZM37 2C37 3.10457 36.1046 4 35 4C33.8954 4 33 3.10457 33 2C33 0.895431 33.8954 0 35 0C36.1046 0 37 0.895431 37 2ZM35 84C36.1046 84 37 83.1046 37 82C37 80.8954 36.1046 80 35 80C33.8954 80 33 80.8954 33 82C33 83.1046 33.8954 84 35 84ZM37 42C37 43.1046 36.1046 44 35 44C33.8954 44 33 43.1046 33 42C33 40.8954 33.8954 40 35 40C36.1046 40 37 40.8954 37 42ZM35 124C36.1046 124 37 123.105 37 122C37 120.895 36.1046 120 35 120C33.8954 120 33 120.895 33 122C33 123.105 33.8954 124 35 124ZM37 182C37 183.105 36.1046 184 35 184C33.8954 184 33 183.105 33 182C33 180.895 33.8954 180 35 180C36.1046 180 37 180.895 37 182ZM35 24C36.1046 24 37 23.1046 37 22C37 20.8954 36.1046 20 35 20C33.8954 20 33 20.8954 33 22C33 23.1046 33.8954 24 35 24ZM37 102C37 103.105 36.1046 104 35 104C33.8954 104 33 103.105 33 102C33 100.895 33.8954 100 35 100C36.1046 100 37 100.895 37 102ZM35 164C36.1046 164 37 163.105 37 162C37 160.895 36.1046 160 35 160C33.8954 160 33 160.895 33 162C33 163.105 33.8954 164 35 164ZM37 62C37 63.1046 36.1046 64 35 64C33.8954 64 33 63.1046 33 62C33 60.8954 33.8954 60 35 60C36.1046 60 37 60.8954 37 62ZM35 144C36.1046 144 37 143.105 37 142C37 140.895 36.1046 140 35 140C33.8954 140 33 140.895 33 142C33 143.105 33.8954 144 35 144ZM117 2C117 3.10457 116.105 4 115 4C113.895 4 113 3.10457 113 2C113 0.895431 113.895 0 115 0C116.105 0 117 0.895431 117 2ZM115 84C116.105 84 117 83.1046 117 82C117 80.8954 116.105 80 115 80C113.895 80 113 80.8954 113 82C113 83.1046 113.895 84 115 84ZM117 42C117 43.1046 116.105 44 115 44C113.895 44 113 43.1046 113 42C113 40.8954 113.895 40 115 40C116.105 40 117 40.8954 117 42ZM115 124C116.105 124 117 123.105 117 122C117 120.895 116.105 120 115 120C113.895 120 113 120.895 113 122C113 123.105 113.895 124 115 124ZM117 182C117 183.105 116.105 184 115 184C113.895 184 113 183.105 113 182C113 180.895 113.895 180 115 180C116.105 180 117 180.895 117 182ZM115 24C116.105 24 117 23.1046 117 22C117 20.8954 116.105 20 115 20C113.895 20 113 20.8954 113 22C113 23.1046 113.895 24 115 24ZM117 102C117 103.105 116.105 104 115 104C113.895 104 113 103.105 113 102C113 100.895 113.895 100 115 100C116.105 100 117 100.895 117 102ZM115 164C116.105 164 117 163.105 117 162C117 160.895 116.105 160 115 160C113.895 160 113 160.895 113 162C113 163.105 113.895 164 115 164ZM117 62C117 63.1046 116.105 64 115 64C113.895 64 113 63.1046 113 62C113 60.8954 113.895 60 115 60C116.105 60 117 60.8954 117 62ZM115 144C116.105 144 117 143.105 117 142C117 140.895 116.105 140 115 140C113.895 140 113 140.895 113 142C113 143.105 113.895 144 115 144ZM157 2C157 3.10457 156.105 4 155 4C153.895 4 153 3.10457 153 2C153 0.895431 153.895 0 155 0C156.105 0 157 0.895431 157 2ZM155 84C156.105 84 157 83.1046 157 82C157 80.8954 156.105 80 155 80C153.895 80 153 80.8954 153 82C153 83.1046 153.895 84 155 84ZM157 42C157 43.1046 156.105 44 155 44C153.895 44 153 43.1046 153 42C153 40.8954 153.895 40 155 40C156.105 40 157 40.8954 157 42ZM155 124C156.105 124 157 123.105 157 122C157 120.895 156.105 120 155 120C153.895 120 153 120.895 153 122C153 123.105 153.895 124 155 124ZM157 182C157 183.105 156.105 184 155 184C153.895 184 153 183.105 153 182C153 180.895 153.895 180 155 180C156.105 180 157 180.895 157 182ZM155 24C156.105 24 157 23.1046 157 22C157 20.8954 156.105 20 155 20C153.895 20 153 20.8954 153 22C153 23.1046 153.895 24 155 24ZM157 102C157 103.105 156.105 104 155 104C153.895 104 153 103.105 153 102C153 100.895 153.895 100 155 100C156.105 100 157 100.895 157 102ZM155 164C156.105 164 157 163.105 157 162C157 160.895 156.105 160 155 160C153.895 160 153 160.895 153 162C153 163.105 153.895 164 155 164ZM157 62C157 63.1046 156.105 64 155 64C153.895 64 153 63.1046 153 62C153 60.8954 153.895 60 155 60C156.105 60 157 60.8954 157 62ZM155 144C156.105 144 157 143.105 157 142C157 140.895 156.105 140 155 140C153.895 140 153 140.895 153 142C153 143.105 153.895 144 155 144Z" fill="white"/>
</svg>
