<svg width="273" height="364" viewBox="0 0 273 364" fill="none" xmlns="http://www.w3.org/2000/svg">
<path fill-rule="evenodd" clip-rule="evenodd" d="M2 4C3.10457 4 4 3.10457 4 2C4 0.895431 3.10457 0 2 0C0.895431 0 0 0.895431 0 2C0 3.10457 0.895431 4 2 4ZM2 84C3.10457 84 4 83.1046 4 82C4 80.8954 3.10457 80 2 80C0.895431 80 0 80.8954 0 82C0 83.1046 0.895431 84 2 84ZM4 42C4 43.1046 3.10457 44 2 44C0.895431 44 0 43.1046 0 42C0 40.8954 0.895431 40 2 40C3.10457 40 4 40.8954 4 42ZM2 124C3.10457 124 4 123.105 4 122C4 120.895 3.10457 120 2 120C0.895431 120 0 120.895 0 122C0 123.105 0.895431 124 2 124ZM4 182C4 183.105 3.10457 184 2 184C0.895431 184 0 183.105 0 182C0 180.895 0.895431 180 2 180C3.10457 180 4 180.895 4 182ZM2 24C3.10457 24 4 23.1046 4 22C4 20.8954 3.10457 20 2 20C0.895431 20 0 20.8954 0 22C0 23.1046 0.895431 24 2 24ZM4 102C4 103.105 3.10457 104 2 104C0.895431 104 0 103.105 0 102C0 100.895 0.895431 100 2 100C3.10457 100 4 100.895 4 102ZM2 164C3.10457 164 4 163.105 4 162C4 160.895 3.10457 160 2 160C0.895431 160 0 160.895 0 162C0 163.105 0.895431 164 2 164ZM4 62C4 63.1046 3.10457 64 2 64C0.895431 64 0 63.1046 0 62C0 60.8954 0.895431 60 2 60C3.10457 60 4 60.8954 4 62ZM2 144C3.10457 144 4 143.105 4 142C4 140.895 3.10457 140 2 140C0.895431 140 0 140.895 0 142C0 143.105 0.895431 144 2 144ZM84 2C84 3.10457 83.1046 4 82 4C80.8954 4 80 3.10457 80 2C80 0.895431 80.8954 0 82 0C83.1046 0 84 0.895431 84 2ZM82 84C83.1046 84 84 83.1046 84 82C84 80.8954 83.1046 80 82 80C80.8954 80 80 80.8954 80 82C80 83.1046 80.8954 84 82 84ZM84 42C84 43.1046 83.1046 44 82 44C80.8954 44 80 43.1046 80 42C80 40.8954 80.8954 40 82 40C83.1046 40 84 40.8954 84 42ZM82 124C83.1046 124 84 123.105 84 122C84 120.895 83.1046 120 82 120C80.8954 120 80 120.895 80 122C80 123.105 80.8954 124 82 124ZM84 182C84 183.105 83.1046 184 82 184C80.8954 184 80 183.105 80 182C80 180.895 80.8954 180 82 180C83.1046 180 84 180.895 84 182ZM82 24C83.1046 24 84 23.1046 84 22C84 20.8954 83.1046 20 82 20C80.8954 20 80 20.8954 80 22C80 23.1046 80.8954 24 82 24ZM84 102C84 103.105 83.1046 104 82 104C80.8954 104 80 103.105 80 102C80 100.895 80.8954 100 82 100C83.1046 100 84 100.895 84 102ZM82 164C83.1046 164 84 163.105 84 162C84 160.895 83.1046 160 82 160C80.8954 160 80 160.895 80 162C80 163.105 80.8954 164 82 164ZM84 62C84 63.1046 83.1046 64 82 64C80.8954 64 80 63.1046 80 62C80 60.8954 80.8954 60 82 60C83.1046 60 84 60.8954 84 62ZM82 144C83.1046 144 84 143.105 84 142C84 140.895 83.1046 140 82 140C80.8954 140 80 140.895 80 142C80 143.105 80.8954 144 82 144ZM44 2C44 3.10457 43.1046 4 42 4C40.8954 4 40 3.10457 40 2C40 0.895431 40.8954 0 42 0C43.1046 0 44 0.895431 44 2ZM42 84C43.1046 84 44 83.1046 44 82C44 80.8954 43.1046 80 42 80C40.8954 80 40 80.8954 40 82C40 83.1046 40.8954 84 42 84ZM44 42C44 43.1046 43.1046 44 42 44C40.8954 44 40 43.1046 40 42C40 40.8954 40.8954 40 42 40C43.1046 40 44 40.8954 44 42ZM42 124C43.1046 124 44 123.105 44 122C44 120.895 43.1046 120 42 120C40.8954 120 40 120.895 40 122C40 123.105 40.8954 124 42 124ZM44 182C44 183.105 43.1046 184 42 184C40.8954 184 40 183.105 40 182C40 180.895 40.8954 180 42 180C43.1046 180 44 180.895 44 182ZM42 24C43.1046 24 44 23.1046 44 22C44 20.8954 43.1046 20 42 20C40.8954 20 40 20.8954 40 22C40 23.1046 40.8954 24 42 24ZM44 102C44 103.105 43.1046 104 42 104C40.8954 104 40 103.105 40 102C40 100.895 40.8954 100 42 100C43.1046 100 44 100.895 44 102ZM42 164C43.1046 164 44 163.105 44 162C44 160.895 43.1046 160 42 160C40.8954 160 40 160.895 40 162C40 163.105 40.8954 164 42 164ZM44 62C44 63.1046 43.1046 64 42 64C40.8954 64 40 63.1046 40 62C40 60.8954 40.8954 60 42 60C43.1046 60 44 60.8954 44 62ZM42 144C43.1046 144 44 143.105 44 142C44 140.895 43.1046 140 42 140C40.8954 140 40 140.895 40 142C40 143.105 40.8954 144 42 144ZM124 2C124 3.10457 123.105 4 122 4C120.895 4 120 3.10457 120 2C120 0.895431 120.895 0 122 0C123.105 0 124 0.895431 124 2ZM122 84C123.105 84 124 83.1046 124 82C124 80.8954 123.105 80 122 80C120.895 80 120 80.8954 120 82C120 83.1046 120.895 84 122 84ZM124 42C124 43.1046 123.105 44 122 44C120.895 44 120 43.1046 120 42C120 40.8954 120.895 40 122 40C123.105 40 124 40.8954 124 42ZM122 124C123.105 124 124 123.105 124 122C124 120.895 123.105 120 122 120C120.895 120 120 120.895 120 122C120 123.105 120.895 124 122 124ZM124 182C124 183.105 123.105 184 122 184C120.895 184 120 183.105 120 182C120 180.895 120.895 180 122 180C123.105 180 124 180.895 124 182ZM122 24C123.105 24 124 23.1046 124 22C124 20.8954 123.105 20 122 20C120.895 20 120 20.8954 120 22C120 23.1046 120.895 24 122 24ZM124 102C124 103.105 123.105 104 122 104C120.895 104 120 103.105 120 102C120 100.895 120.895 100 122 100C123.105 100 124 100.895 124 102ZM122 164C123.105 164 124 163.105 124 162C124 160.895 123.105 160 122 160C120.895 160 120 160.895 120 162C120 163.105 120.895 164 122 164ZM124 62C124 63.1046 123.105 64 122 64C120.895 64 120 63.1046 120 62C120 60.8954 120.895 60 122 60C123.105 60 124 60.8954 124 62ZM122 144C123.105 144 124 143.105 124 142C124 140.895 123.105 140 122 140C120.895 140 120 140.895 120 142C120 143.105 120.895 144 122 144ZM164 2C164 3.10457 163.105 4 162 4C160.895 4 160 3.10457 160 2C160 0.895431 160.895 0 162 0C163.105 0 164 0.895431 164 2ZM162 84C163.105 84 164 83.1046 164 82C164 80.8954 163.105 80 162 80C160.895 80 160 80.8954 160 82C160 83.1046 160.895 84 162 84ZM164 42C164 43.1046 163.105 44 162 44C160.895 44 160 43.1046 160 42C160 40.8954 160.895 40 162 40C163.105 40 164 40.8954 164 42ZM162 124C163.105 124 164 123.105 164 122C164 120.895 163.105 120 162 120C160.895 120 160 120.895 160 122C160 123.105 160.895 124 162 124ZM164 182C164 183.105 163.105 184 162 184C160.895 184 160 183.105 160 182C160 180.895 160.895 180 162 180C163.105 180 164 180.895 164 182ZM162 24C163.105 24 164 23.1046 164 22C164 20.8954 163.105 20 162 20C160.895 20 160 20.8954 160 22C160 23.1046 160.895 24 162 24ZM164 102C164 103.105 163.105 104 162 104C160.895 104 160 103.105 160 102C160 100.895 160.895 100 162 100C163.105 100 164 100.895 164 102ZM162 164C163.105 164 164 163.105 164 162C164 160.895 163.105 160 162 160C160.895 160 160 160.895 160 162C160 163.105 160.895 164 162 164ZM164 62C164 63.1046 163.105 64 162 64C160.895 64 160 63.1046 160 62C160 60.8954 160.895 60 162 60C163.105 60 164 60.8954 164 62ZM162 144C163.105 144 164 143.105 164 142C164 140.895 163.105 140 162 140C160.895 140 160 140.895 160 142C160 143.105 160.895 144 162 144ZM24 2C24 3.10457 23.1046 4 22 4C20.8954 4 20 3.10457 20 2C20 0.895431 20.8954 0 22 0C23.1046 0 24 0.895431 24 2ZM22 84C23.1046 84 24 83.1046 24 82C24 80.8954 23.1046 80 22 80C20.8954 80 20 80.8954 20 82C20 83.1046 20.8954 84 22 84ZM24 42C24 43.1046 23.1046 44 22 44C20.8954 44 20 43.1046 20 42C20 40.8954 20.8954 40 22 40C23.1046 40 24 40.8954 24 42ZM22 124C23.1046 124 24 123.105 24 122C24 120.895 23.1046 120 22 120C20.8954 120 20 120.895 20 122C20 123.105 20.8954 124 22 124ZM24 182C24 183.105 23.1046 184 22 184C20.8954 184 20 183.105 20 182C20 180.895 20.8954 180 22 180C23.1046 180 24 180.895 24 182ZM22 24C23.1046 24 24 23.1046 24 22C24 20.8954 23.1046 20 22 20C20.8954 20 20 20.8954 20 22C20 23.1046 20.8954 24 22 24ZM24 102C24 103.105 23.1046 104 22 104C20.8954 104 20 103.105 20 102C20 100.895 20.8954 100 22 100C23.1046 100 24 100.895 24 102ZM22 164C23.1046 164 24 163.105 24 162C24 160.895 23.1046 160 22 160C20.8954 160 20 160.895 20 162C20 163.105 20.8954 164 22 164ZM24 62C24 63.1046 23.1046 64 22 64C20.8954 64 20 63.1046 20 62C20 60.8954 20.8954 60 22 60C23.1046 60 24 60.8954 24 62ZM22 144C23.1046 144 24 143.105 24 142C24 140.895 23.1046 140 22 140C20.8954 140 20 140.895 20 142C20 143.105 20.8954 144 22 144ZM104 2C104 3.10457 103.105 4 102 4C100.895 4 100 3.10457 100 2C100 0.895431 100.895 0 102 0C103.105 0 104 0.895431 104 2ZM102 84C103.105 84 104 83.1046 104 82C104 80.8954 103.105 80 102 80C100.895 80 100 80.8954 100 82C100 83.1046 100.895 84 102 84ZM104 42C104 43.1046 103.105 44 102 44C100.895 44 100 43.1046 100 42C100 40.8954 100.895 40 102 40C103.105 40 104 40.8954 104 42ZM102 124C103.105 124 104 123.105 104 122C104 120.895 103.105 120 102 120C100.895 120 100 120.895 100 122C100 123.105 100.895 124 102 124ZM104 182C104 183.105 103.105 184 102 184C100.895 184 100 183.105 100 182C100 180.895 100.895 180 102 180C103.105 180 104 180.895 104 182ZM102 24C103.105 24 104 23.1046 104 22C104 20.8954 103.105 20 102 20C100.895 20 100 20.8954 100 22C100 23.1046 100.895 24 102 24ZM104 102C104 103.105 103.105 104 102 104C100.895 104 100 103.105 100 102C100 100.895 100.895 100 102 100C103.105 100 104 100.895 104 102ZM102 164C103.105 164 104 163.105 104 162C104 160.895 103.105 160 102 160C100.895 160 100 160.895 100 162C100 163.105 100.895 164 102 164ZM104 62C104 63.1046 103.105 64 102 64C100.895 64 100 63.1046 100 62C100 60.8954 100.895 60 102 60C103.105 60 104 60.8954 104 62ZM102 144C103.105 144 104 143.105 104 142C104 140.895 103.105 140 102 140C100.895 140 100 140.895 100 142C100 143.105 100.895 144 102 144ZM64 2C64 3.10457 63.1046 4 62 4C60.8954 4 60 3.10457 60 2C60 0.895431 60.8954 0 62 0C63.1046 0 64 0.895431 64 2ZM62 84C63.1046 84 64 83.1046 64 82C64 80.8954 63.1046 80 62 80C60.8954 80 60 80.8954 60 82C60 83.1046 60.8954 84 62 84ZM64 42C64 43.1046 63.1046 44 62 44C60.8954 44 60 43.1046 60 42C60 40.8954 60.8954 40 62 40C63.1046 40 64 40.8954 64 42ZM62 124C63.1046 124 64 123.105 64 122C64 120.895 63.1046 120 62 120C60.8954 120 60 120.895 60 122C60 123.105 60.8954 124 62 124ZM64 182C64 183.105 63.1046 184 62 184C60.8954 184 60 183.105 60 182C60 180.895 60.8954 180 62 180C63.1046 180 64 180.895 64 182ZM62 24C63.1046 24 64 23.1046 64 22C64 20.8954 63.1046 20 62 20C60.8954 20 60 20.8954 60 22C60 23.1046 60.8954 24 62 24ZM64 102C64 103.105 63.1046 104 62 104C60.8954 104 60 103.105 60 102C60 100.895 60.8954 100 62 100C63.1046 100 64 100.895 64 102ZM62 164C63.1046 164 64 163.105 64 162C64 160.895 63.1046 160 62 160C60.8954 160 60 160.895 60 162C60 163.105 60.8954 164 62 164ZM64 62C64 63.1046 63.1046 64 62 64C60.8954 64 60 63.1046 60 62C60 60.8954 60.8954 60 62 60C63.1046 60 64 60.8954 64 62ZM62 144C63.1046 144 64 143.105 64 142C64 140.895 63.1046 140 62 140C60.8954 140 60 140.895 60 142C60 143.105 60.8954 144 62 144ZM144 2C144 3.10457 143.105 4 142 4C140.895 4 140 3.10457 140 2C140 0.895431 140.895 0 142 0C143.105 0 144 0.895431 144 2ZM142 84C143.105 84 144 83.1046 144 82C144 80.8954 143.105 80 142 80C140.895 80 140 80.8954 140 82C140 83.1046 140.895 84 142 84ZM144 42C144 43.1046 143.105 44 142 44C140.895 44 140 43.1046 140 42C140 40.8954 140.895 40 142 40C143.105 40 144 40.8954 144 42ZM142 124C143.105 124 144 123.105 144 122C144 120.895 143.105 120 142 120C140.895 120 140 120.895 140 122C140 123.105 140.895 124 142 124ZM144 182C144 183.105 143.105 184 142 184C140.895 184 140 183.105 140 182C140 180.895 140.895 180 142 180C143.105 180 144 180.895 144 182ZM142 24C143.105 24 144 23.1046 144 22C144 20.8954 143.105 20 142 20C140.895 20 140 20.8954 140 22C140 23.1046 140.895 24 142 24ZM144 102C144 103.105 143.105 104 142 104C140.895 104 140 103.105 140 102C140 100.895 140.895 100 142 100C143.105 100 144 100.895 144 102ZM142 164C143.105 164 144 163.105 144 162C144 160.895 143.105 160 142 160C140.895 160 140 160.895 140 162C140 163.105 140.895 164 142 164ZM144 62C144 63.1046 143.105 64 142 64C140.895 64 140 63.1046 140 62C140 60.8954 140.895 60 142 60C143.105 60 144 60.8954 144 62ZM142 144C143.105 144 144 143.105 144 142C144 140.895 143.105 140 142 140C140.895 140 140 140.895 140 142C140 143.105 140.895 144 142 144ZM184 2C184 3.10457 183.105 4 182 4C180.895 4 180 3.10457 180 2C180 0.895431 180.895 0 182 0C183.105 0 184 0.895431 184 2ZM182 84C183.105 84 184 83.1046 184 82C184 80.8954 183.105 80 182 80C180.895 80 180 80.8954 180 82C180 83.1046 180.895 84 182 84ZM184 42C184 43.1046 183.105 44 182 44C180.895 44 180 43.1046 180 42C180 40.8954 180.895 40 182 40C183.105 40 184 40.8954 184 42ZM182 124C183.105 124 184 123.105 184 122C184 120.895 183.105 120 182 120C180.895 120 180 120.895 180 122C180 123.105 180.895 124 182 124ZM184 182C184 183.105 183.105 184 182 184C180.895 184 180 183.105 180 182C180 180.895 180.895 180 182 180C183.105 180 184 180.895 184 182ZM182 24C183.105 24 184 23.1046 184 22C184 20.8954 183.105 20 182 20C180.895 20 180 20.8954 180 22C180 23.1046 180.895 24 182 24ZM184 102C184 103.105 183.105 104 182 104C180.895 104 180 103.105 180 102C180 100.895 180.895 100 182 100C183.105 100 184 100.895 184 102ZM182 164C183.105 164 184 163.105 184 162C184 160.895 183.105 160 182 160C180.895 160 180 160.895 180 162C180 163.105 180.895 164 182 164ZM184 62C184 63.1046 183.105 64 182 64C180.895 64 180 63.1046 180 62C180 60.8954 180.895 60 182 60C183.105 60 184 60.8954 184 62ZM182 144C183.105 144 184 143.105 184 142C184 140.895 183.105 140 182 140C180.895 140 180 140.895 180 142C180 143.105 180.895 144 182 144ZM262 4C263.105 4 264 3.10457 264 2C264 0.895431 263.105 0 262 0C260.895 0 260 0.895431 260 2C260 3.10457 260.895 4 262 4ZM264 82C264 83.1046 263.105 84 262 84C260.895 84 260 83.1046 260 82C260 80.8954 260.895 80 262 80C263.105 80 264 80.8954 264 82ZM262 44C263.105 44 264 43.1046 264 42C264 40.8954 263.105 40 262 40C260.895 40 260 40.8954 260 42C260 43.1046 260.895 44 262 44ZM264 122C264 123.105 263.105 124 262 124C260.895 124 260 123.105 260 122C260 120.895 260.895 120 262 120C263.105 120 264 120.895 264 122ZM262 184C263.105 184 264 183.105 264 182C264 180.895 263.105 180 262 180C260.895 180 260 180.895 260 182C260 183.105 260.895 184 262 184ZM264 22C264 23.1046 263.105 24 262 24C260.895 24 260 23.1046 260 22C260 20.8954 260.895 20 262 20C263.105 20 264 20.8954 264 22ZM262 104C263.105 104 264 103.105 264 102C264 100.895 263.105 100 262 100C260.895 100 260 100.895 260 102C260 103.105 260.895 104 262 104ZM264 162C264 163.105 263.105 164 262 164C260.895 164 260 163.105 260 162C260 160.895 260.895 160 262 160C263.105 160 264 160.895 264 162ZM262 64C263.105 64 264 63.1046 264 62C264 60.8954 263.105 60 262 60C260.895 60 260 60.8954 260 62C260 63.1046 260.895 64 262 64ZM264 142C264 143.105 263.105 144 262 144C260.895 144 260 143.105 260 142C260 140.895 260.895 140 262 140C263.105 140 264 140.895 264 142ZM222 4C223.105 4 224 3.10457 224 2C224 0.895431 223.105 0 222 0C220.895 0 220 0.895431 220 2C220 3.10457 220.895 4 222 4ZM224 82C224 83.1046 223.105 84 222 84C220.895 84 220 83.1046 220 82C220 80.8954 220.895 80 222 80C223.105 80 224 80.8954 224 82ZM222 44C223.105 44 224 43.1046 224 42C224 40.8954 223.105 40 222 40C220.895 40 220 40.8954 220 42C220 43.1046 220.895 44 222 44ZM224 122C224 123.105 223.105 124 222 124C220.895 124 220 123.105 220 122C220 120.895 220.895 120 222 120C223.105 120 224 120.895 224 122ZM222 184C223.105 184 224 183.105 224 182C224 180.895 223.105 180 222 180C220.895 180 220 180.895 220 182C220 183.105 220.895 184 222 184ZM224 22C224 23.1046 223.105 24 222 24C220.895 24 220 23.1046 220 22C220 20.8954 220.895 20 222 20C223.105 20 224 20.8954 224 22ZM222 104C223.105 104 224 103.105 224 102C224 100.895 223.105 100 222 100C220.895 100 220 100.895 220 102C220 103.105 220.895 104 222 104ZM224 162C224 163.105 223.105 164 222 164C220.895 164 220 163.105 220 162C220 160.895 220.895 160 222 160C223.105 160 224 160.895 224 162ZM222 64C223.105 64 224 63.1046 224 62C224 60.8954 223.105 60 222 60C220.895 60 220 60.8954 220 62C220 63.1046 220.895 64 222 64ZM224 142C224 143.105 223.105 144 222 144C220.895 144 220 143.105 220 142C220 140.895 220.895 140 222 140C223.105 140 224 140.895 224 142ZM302 4C303.105 4 304 3.10457 304 2C304 0.895431 303.105 0 302 0C300.895 0 300 0.895431 300 2C300 3.10457 300.895 4 302 4ZM304 82C304 83.1046 303.105 84 302 84C300.895 84 300 83.1046 300 82C300 80.8954 300.895 80 302 80C303.105 80 304 80.8954 304 82ZM302 44C303.105 44 304 43.1046 304 42C304 40.8954 303.105 40 302 40C300.895 40 300 40.8954 300 42C300 43.1046 300.895 44 302 44ZM304 122C304 123.105 303.105 124 302 124C300.895 124 300 123.105 300 122C300 120.895 300.895 120 302 120C303.105 120 304 120.895 304 122ZM302 184C303.105 184 304 183.105 304 182C304 180.895 303.105 180 302 180C300.895 180 300 180.895 300 182C300 183.105 300.895 184 302 184ZM304 22C304 23.1046 303.105 24 302 24C300.895 24 300 23.1046 300 22C300 20.8954 300.895 20 302 20C303.105 20 304 20.8954 304 22ZM302 104C303.105 104 304 103.105 304 102C304 100.895 303.105 100 302 100C300.895 100 300 100.895 300 102C300 103.105 300.895 104 302 104ZM304 162C304 163.105 303.105 164 302 164C300.895 164 300 163.105 300 162C300 160.895 300.895 160 302 160C303.105 160 304 160.895 304 162ZM302 64C303.105 64 304 63.1046 304 62C304 60.8954 303.105 60 302 60C300.895 60 300 60.8954 300 62C300 63.1046 300.895 64 302 64ZM304 142C304 143.105 303.105 144 302 144C300.895 144 300 143.105 300 142C300 140.895 300.895 140 302 140C303.105 140 304 140.895 304 142ZM342 4C343.105 4 344 3.10457 344 2C344 0.895431 343.105 0 342 0C340.895 0 340 0.895431 340 2C340 3.10457 340.895 4 342 4ZM344 82C344 83.1046 343.105 84 342 84C340.895 84 340 83.1046 340 82C340 80.8954 340.895 80 342 80C343.105 80 344 80.8954 344 82ZM342 44C343.105 44 344 43.1046 344 42C344 40.8954 343.105 40 342 40C340.895 40 340 40.8954 340 42C340 43.1046 340.895 44 342 44ZM344 122C344 123.105 343.105 124 342 124C340.895 124 340 123.105 340 122C340 120.895 340.895 120 342 120C343.105 120 344 120.895 344 122ZM342 184C343.105 184 344 183.105 344 182C344 180.895 343.105 180 342 180C340.895 180 340 180.895 340 182C340 183.105 340.895 184 342 184ZM344 22C344 23.1046 343.105 24 342 24C340.895 24 340 23.1046 340 22C340 20.8954 340.895 20 342 20C343.105 20 344 20.8954 344 22ZM342 104C343.105 104 344 103.105 344 102C344 100.895 343.105 100 342 100C340.895 100 340 100.895 340 102C340 103.105 340.895 104 342 104ZM344 162C344 163.105 343.105 164 342 164C340.895 164 340 163.105 340 162C340 160.895 340.895 160 342 160C343.105 160 344 160.895 344 162ZM342 64C343.105 64 344 63.1046 344 62C344 60.8954 343.105 60 342 60C340.895 60 340 60.8954 340 62C340 63.1046 340.895 64 342 64ZM344 142C344 143.105 343.105 144 342 144C340.895 144 340 143.105 340 142C340 140.895 340.895 140 342 140C343.105 140 344 140.895 344 142ZM202 4C203.105 4 204 3.10457 204 2C204 0.895431 203.105 0 202 0C200.895 0 200 0.895431 200 2C200 3.10457 200.895 4 202 4ZM204 82C204 83.1046 203.105 84 202 84C200.895 84 200 83.1046 200 82C200 80.8954 200.895 80 202 80C203.105 80 204 80.8954 204 82ZM202 44C203.105 44 204 43.1046 204 42C204 40.8954 203.105 40 202 40C200.895 40 200 40.8954 200 42C200 43.1046 200.895 44 202 44ZM204 122C204 123.105 203.105 124 202 124C200.895 124 200 123.105 200 122C200 120.895 200.895 120 202 120C203.105 120 204 120.895 204 122ZM202 184C203.105 184 204 183.105 204 182C204 180.895 203.105 180 202 180C200.895 180 200 180.895 200 182C200 183.105 200.895 184 202 184ZM204 22C204 23.1046 203.105 24 202 24C200.895 24 200 23.1046 200 22C200 20.8954 200.895 20 202 20C203.105 20 204 20.8954 204 22ZM202 104C203.105 104 204 103.105 204 102C204 100.895 203.105 100 202 100C200.895 100 200 100.895 200 102C200 103.105 200.895 104 202 104ZM204 162C204 163.105 203.105 164 202 164C200.895 164 200 163.105 200 162C200 160.895 200.895 160 202 160C203.105 160 204 160.895 204 162ZM202 64C203.105 64 204 63.1046 204 62C204 60.8954 203.105 60 202 60C200.895 60 200 60.8954 200 62C200 63.1046 200.895 64 202 64ZM204 142C204 143.105 203.105 144 202 144C200.895 144 200 143.105 200 142C200 140.895 200.895 140 202 140C203.105 140 204 140.895 204 142ZM282 4C283.105 4 284 3.10457 284 2C284 0.895431 283.105 0 282 0C280.895 0 280 0.895431 280 2C280 3.10457 280.895 4 282 4ZM284 82C284 83.1046 283.105 84 282 84C280.895 84 280 83.1046 280 82C280 80.8954 280.895 80 282 80C283.105 80 284 80.8954 284 82ZM282 44C283.105 44 284 43.1046 284 42C284 40.8954 283.105 40 282 40C280.895 40 280 40.8954 280 42C280 43.1046 280.895 44 282 44ZM284 122C284 123.105 283.105 124 282 124C280.895 124 280 123.105 280 122C280 120.895 280.895 120 282 120C283.105 120 284 120.895 284 122ZM282 184C283.105 184 284 183.105 284 182C284 180.895 283.105 180 282 180C280.895 180 280 180.895 280 182C280 183.105 280.895 184 282 184ZM284 22C284 23.1046 283.105 24 282 24C280.895 24 280 23.1046 280 22C280 20.8954 280.895 20 282 20C283.105 20 284 20.8954 284 22ZM282 104C283.105 104 284 103.105 284 102C284 100.895 283.105 100 282 100C280.895 100 280 100.895 280 102C280 103.105 280.895 104 282 104ZM284 162C284 163.105 283.105 164 282 164C280.895 164 280 163.105 280 162C280 160.895 280.895 160 282 160C283.105 160 284 160.895 284 162ZM282 64C283.105 64 284 63.1046 284 62C284 60.8954 283.105 60 282 60C280.895 60 280 60.8954 280 62C280 63.1046 280.895 64 282 64ZM284 142C284 143.105 283.105 144 282 144C280.895 144 280 143.105 280 142C280 140.895 280.895 140 282 140C283.105 140 284 140.895 284 142ZM242 4C243.105 4 244 3.10457 244 2C244 0.895431 243.105 0 242 0C240.895 0 240 0.895431 240 2C240 3.10457 240.895 4 242 4ZM244 82C244 83.1046 243.105 84 242 84C240.895 84 240 83.1046 240 82C240 80.8954 240.895 80 242 80C243.105 80 244 80.8954 244 82ZM242 44C243.105 44 244 43.1046 244 42C244 40.8954 243.105 40 242 40C240.895 40 240 40.8954 240 42C240 43.1046 240.895 44 242 44ZM244 122C244 123.105 243.105 124 242 124C240.895 124 240 123.105 240 122C240 120.895 240.895 120 242 120C243.105 120 244 120.895 244 122ZM242 184C243.105 184 244 183.105 244 182C244 180.895 243.105 180 242 180C240.895 180 240 180.895 240 182C240 183.105 240.895 184 242 184ZM244 22C244 23.1046 243.105 24 242 24C240.895 24 240 23.1046 240 22C240 20.8954 240.895 20 242 20C243.105 20 244 20.8954 244 22ZM242 104C243.105 104 244 103.105 244 102C244 100.895 243.105 100 242 100C240.895 100 240 100.895 240 102C240 103.105 240.895 104 242 104ZM244 162C244 163.105 243.105 164 242 164C240.895 164 240 163.105 240 162C240 160.895 240.895 160 242 160C243.105 160 244 160.895 244 162ZM242 64C243.105 64 244 63.1046 244 62C244 60.8954 243.105 60 242 60C240.895 60 240 60.8954 240 62C240 63.1046 240.895 64 242 64ZM244 142C244 143.105 243.105 144 242 144C240.895 144 240 143.105 240 142C240 140.895 240.895 140 242 140C243.105 140 244 140.895 244 142ZM322 4C323.105 4 324 3.10457 324 2C324 0.895431 323.105 0 322 0C320.895 0 320 0.895431 320 2C320 3.10457 320.895 4 322 4ZM324 82C324 83.1046 323.105 84 322 84C320.895 84 320 83.1046 320 82C320 80.8954 320.895 80 322 80C323.105 80 324 80.8954 324 82ZM322 44C323.105 44 324 43.1046 324 42C324 40.8954 323.105 40 322 40C320.895 40 320 40.8954 320 42C320 43.1046 320.895 44 322 44ZM324 122C324 123.105 323.105 124 322 124C320.895 124 320 123.105 320 122C320 120.895 320.895 120 322 120C323.105 120 324 120.895 324 122ZM322 184C323.105 184 324 183.105 324 182C324 180.895 323.105 180 322 180C320.895 180 320 180.895 320 182C320 183.105 320.895 184 322 184ZM324 22C324 23.1046 323.105 24 322 24C320.895 24 320 23.1046 320 22C320 20.8954 320.895 20 322 20C323.105 20 324 20.8954 324 22ZM322 104C323.105 104 324 103.105 324 102C324 100.895 323.105 100 322 100C320.895 100 320 100.895 320 102C320 103.105 320.895 104 322 104ZM324 162C324 163.105 323.105 164 322 164C320.895 164 320 163.105 320 162C320 160.895 320.895 160 322 160C323.105 160 324 160.895 324 162ZM322 64C323.105 64 324 63.1046 324 62C324 60.8954 323.105 60 322 60C320.895 60 320 60.8954 320 62C320 63.1046 320.895 64 322 64ZM324 142C324 143.105 323.105 144 322 144C320.895 144 320 143.105 320 142C320 140.895 320.895 140 322 140C323.105 140 324 140.895 324 142ZM362 4C363.105 4 364 3.10457 364 2C364 0.895431 363.105 0 362 0C360.895 0 360 0.895431 360 2C360 3.10457 360.895 4 362 4ZM364 82C364 83.1046 363.105 84 362 84C360.895 84 360 83.1046 360 82C360 80.8954 360.895 80 362 80C363.105 80 364 80.8954 364 82ZM362 44C363.105 44 364 43.1046 364 42C364 40.8954 363.105 40 362 40C360.895 40 360 40.8954 360 42C360 43.1046 360.895 44 362 44ZM364 122C364 123.105 363.105 124 362 124C360.895 124 360 123.105 360 122C360 120.895 360.895 120 362 120C363.105 120 364 120.895 364 122ZM362 184C363.105 184 364 183.105 364 182C364 180.895 363.105 180 362 180C360.895 180 360 180.895 360 182C360 183.105 360.895 184 362 184ZM364 22C364 23.1046 363.105 24 362 24C360.895 24 360 23.1046 360 22C360 20.8954 360.895 20 362 20C363.105 20 364 20.8954 364 22ZM362 104C363.105 104 364 103.105 364 102C364 100.895 363.105 100 362 100C360.895 100 360 100.895 360 102C360 103.105 360.895 104 362 104ZM364 162C364 163.105 363.105 164 362 164C360.895 164 360 163.105 360 162C360 160.895 360.895 160 362 160C363.105 160 364 160.895 364 162ZM362 64C363.105 64 364 63.1046 364 62C364 60.8954 363.105 60 362 60C360.895 60 360 60.8954 360 62C360 63.1046 360.895 64 362 64ZM364 142C364 143.105 363.105 144 362 144C360.895 144 360 143.105 360 142C360 140.895 360.895 140 362 140C363.105 140 364 140.895 364 142ZM184 262C184 263.105 183.105 264 182 264C180.895 264 180 263.105 180 262C180 260.895 180.895 260 182 260C183.105 260 184 260.895 184 262ZM182 224C183.105 224 184 223.105 184 222C184 220.895 183.105 220 182 220C180.895 220 180 220.895 180 222C180 223.105 180.895 224 182 224ZM184 302C184 303.105 183.105 304 182 304C180.895 304 180 303.105 180 302C180 300.895 180.895 300 182 300C183.105 300 184 300.895 184 302ZM182 364C183.105 364 184 363.105 184 362C184 360.895 183.105 360 182 360C180.895 360 180 360.895 180 362C180 363.105 180.895 364 182 364ZM184 202C184 203.105 183.105 204 182 204C180.895 204 180 203.105 180 202C180 200.895 180.895 200 182 200C183.105 200 184 200.895 184 202ZM182 284C183.105 284 184 283.105 184 282C184 280.895 183.105 280 182 280C180.895 280 180 280.895 180 282C180 283.105 180.895 284 182 284ZM184 342C184 343.105 183.105 344 182 344C180.895 344 180 343.105 180 342C180 340.895 180.895 340 182 340C183.105 340 184 340.895 184 342ZM182 244C183.105 244 184 243.105 184 242C184 240.895 183.105 240 182 240C180.895 240 180 240.895 180 242C180 243.105 180.895 244 182 244ZM184 322C184 323.105 183.105 324 182 324C180.895 324 180 323.105 180 322C180 320.895 180.895 320 182 320C183.105 320 184 320.895 184 322ZM264 262C264 263.105 263.105 264 262 264C260.895 264 260 263.105 260 262C260 260.895 260.895 260 262 260C263.105 260 264 260.895 264 262ZM262 224C263.105 224 264 223.105 264 222C264 220.895 263.105 220 262 220C260.895 220 260 220.895 260 222C260 223.105 260.895 224 262 224ZM264 302C264 303.105 263.105 304 262 304C260.895 304 260 303.105 260 302C260 300.895 260.895 300 262 300C263.105 300 264 300.895 264 302ZM262 364C263.105 364 264 363.105 264 362C264 360.895 263.105 360 262 360C260.895 360 260 360.895 260 362C260 363.105 260.895 364 262 364ZM264 202C264 203.105 263.105 204 262 204C260.895 204 260 203.105 260 202C260 200.895 260.895 200 262 200C263.105 200 264 200.895 264 202ZM262 284C263.105 284 264 283.105 264 282C264 280.895 263.105 280 262 280C260.895 280 260 280.895 260 282C260 283.105 260.895 284 262 284ZM264 342C264 343.105 263.105 344 262 344C260.895 344 260 343.105 260 342C260 340.895 260.895 340 262 340C263.105 340 264 340.895 264 342ZM262 244C263.105 244 264 243.105 264 242C264 240.895 263.105 240 262 240C260.895 240 260 240.895 260 242C260 243.105 260.895 244 262 244ZM264 322C264 323.105 263.105 324 262 324C260.895 324 260 323.105 260 322C260 320.895 260.895 320 262 320C263.105 320 264 320.895 264 322ZM224 262C224 263.105 223.105 264 222 264C220.895 264 220 263.105 220 262C220 260.895 220.895 260 222 260C223.105 260 224 260.895 224 262ZM222 224C223.105 224 224 223.105 224 222C224 220.895 223.105 220 222 220C220.895 220 220 220.895 220 222C220 223.105 220.895 224 222 224ZM224 302C224 303.105 223.105 304 222 304C220.895 304 220 303.105 220 302C220 300.895 220.895 300 222 300C223.105 300 224 300.895 224 302ZM222 364C223.105 364 224 363.105 224 362C224 360.895 223.105 360 222 360C220.895 360 220 360.895 220 362C220 363.105 220.895 364 222 364ZM224 202C224 203.105 223.105 204 222 204C220.895 204 220 203.105 220 202C220 200.895 220.895 200 222 200C223.105 200 224 200.895 224 202ZM222 284C223.105 284 224 283.105 224 282C224 280.895 223.105 280 222 280C220.895 280 220 280.895 220 282C220 283.105 220.895 284 222 284ZM224 342C224 343.105 223.105 344 222 344C220.895 344 220 343.105 220 342C220 340.895 220.895 340 222 340C223.105 340 224 340.895 224 342ZM222 244C223.105 244 224 243.105 224 242C224 240.895 223.105 240 222 240C220.895 240 220 240.895 220 242C220 243.105 220.895 244 222 244ZM224 322C224 323.105 223.105 324 222 324C220.895 324 220 323.105 220 322C220 320.895 220.895 320 222 320C223.105 320 224 320.895 224 322ZM304 262C304 263.105 303.105 264 302 264C300.895 264 300 263.105 300 262C300 260.895 300.895 260 302 260C303.105 260 304 260.895 304 262ZM302 224C303.105 224 304 223.105 304 222C304 220.895 303.105 220 302 220C300.895 220 300 220.895 300 222C300 223.105 300.895 224 302 224ZM304 302C304 303.105 303.105 304 302 304C300.895 304 300 303.105 300 302C300 300.895 300.895 300 302 300C303.105 300 304 300.895 304 302ZM302 364C303.105 364 304 363.105 304 362C304 360.895 303.105 360 302 360C300.895 360 300 360.895 300 362C300 363.105 300.895 364 302 364ZM304 202C304 203.105 303.105 204 302 204C300.895 204 300 203.105 300 202C300 200.895 300.895 200 302 200C303.105 200 304 200.895 304 202ZM302 284C303.105 284 304 283.105 304 282C304 280.895 303.105 280 302 280C300.895 280 300 280.895 300 282C300 283.105 300.895 284 302 284ZM304 342C304 343.105 303.105 344 302 344C300.895 344 300 343.105 300 342C300 340.895 300.895 340 302 340C303.105 340 304 340.895 304 342ZM302 244C303.105 244 304 243.105 304 242C304 240.895 303.105 240 302 240C300.895 240 300 240.895 300 242C300 243.105 300.895 244 302 244ZM304 322C304 323.105 303.105 324 302 324C300.895 324 300 323.105 300 322C300 320.895 300.895 320 302 320C303.105 320 304 320.895 304 322ZM344 262C344 263.105 343.105 264 342 264C340.895 264 340 263.105 340 262C340 260.895 340.895 260 342 260C343.105 260 344 260.895 344 262ZM342 224C343.105 224 344 223.105 344 222C344 220.895 343.105 220 342 220C340.895 220 340 220.895 340 222C340 223.105 340.895 224 342 224ZM344 302C344 303.105 343.105 304 342 304C340.895 304 340 303.105 340 302C340 300.895 340.895 300 342 300C343.105 300 344 300.895 344 302ZM342 364C343.105 364 344 363.105 344 362C344 360.895 343.105 360 342 360C340.895 360 340 360.895 340 362C340 363.105 340.895 364 342 364ZM344 202C344 203.105 343.105 204 342 204C340.895 204 340 203.105 340 202C340 200.895 340.895 200 342 200C343.105 200 344 200.895 344 202ZM342 284C343.105 284 344 283.105 344 282C344 280.895 343.105 280 342 280C340.895 280 340 280.895 340 282C340 283.105 340.895 284 342 284ZM344 342C344 343.105 343.105 344 342 344C340.895 344 340 343.105 340 342C340 340.895 340.895 340 342 340C343.105 340 344 340.895 344 342ZM342 244C343.105 244 344 243.105 344 242C344 240.895 343.105 240 342 240C340.895 240 340 240.895 340 242C340 243.105 340.895 244 342 244ZM344 322C344 323.105 343.105 324 342 324C340.895 324 340 323.105 340 322C340 320.895 340.895 320 342 320C343.105 320 344 320.895 344 322ZM204 262C204 263.105 203.105 264 202 264C200.895 264 200 263.105 200 262C200 260.895 200.895 260 202 260C203.105 260 204 260.895 204 262ZM202 224C203.105 224 204 223.105 204 222C204 220.895 203.105 220 202 220C200.895 220 200 220.895 200 222C200 223.105 200.895 224 202 224ZM204 302C204 303.105 203.105 304 202 304C200.895 304 200 303.105 200 302C200 300.895 200.895 300 202 300C203.105 300 204 300.895 204 302ZM202 364C203.105 364 204 363.105 204 362C204 360.895 203.105 360 202 360C200.895 360 200 360.895 200 362C200 363.105 200.895 364 202 364ZM204 202C204 203.105 203.105 204 202 204C200.895 204 200 203.105 200 202C200 200.895 200.895 200 202 200C203.105 200 204 200.895 204 202ZM202 284C203.105 284 204 283.105 204 282C204 280.895 203.105 280 202 280C200.895 280 200 280.895 200 282C200 283.105 200.895 284 202 284ZM204 342C204 343.105 203.105 344 202 344C200.895 344 200 343.105 200 342C200 340.895 200.895 340 202 340C203.105 340 204 340.895 204 342ZM202 244C203.105 244 204 243.105 204 242C204 240.895 203.105 240 202 240C200.895 240 200 240.895 200 242C200 243.105 200.895 244 202 244ZM204 322C204 323.105 203.105 324 202 324C200.895 324 200 323.105 200 322C200 320.895 200.895 320 202 320C203.105 320 204 320.895 204 322ZM284 262C284 263.105 283.105 264 282 264C280.895 264 280 263.105 280 262C280 260.895 280.895 260 282 260C283.105 260 284 260.895 284 262ZM282 224C283.105 224 284 223.105 284 222C284 220.895 283.105 220 282 220C280.895 220 280 220.895 280 222C280 223.105 280.895 224 282 224ZM284 302C284 303.105 283.105 304 282 304C280.895 304 280 303.105 280 302C280 300.895 280.895 300 282 300C283.105 300 284 300.895 284 302ZM282 364C283.105 364 284 363.105 284 362C284 360.895 283.105 360 282 360C280.895 360 280 360.895 280 362C280 363.105 280.895 364 282 364ZM284 202C284 203.105 283.105 204 282 204C280.895 204 280 203.105 280 202C280 200.895 280.895 200 282 200C283.105 200 284 200.895 284 202ZM282 284C283.105 284 284 283.105 284 282C284 280.895 283.105 280 282 280C280.895 280 280 280.895 280 282C280 283.105 280.895 284 282 284ZM284 342C284 343.105 283.105 344 282 344C280.895 344 280 343.105 280 342C280 340.895 280.895 340 282 340C283.105 340 284 340.895 284 342ZM282 244C283.105 244 284 243.105 284 242C284 240.895 283.105 240 282 240C280.895 240 280 240.895 280 242C280 243.105 280.895 244 282 244ZM284 322C284 323.105 283.105 324 282 324C280.895 324 280 323.105 280 322C280 320.895 280.895 320 282 320C283.105 320 284 320.895 284 322ZM244 262C244 263.105 243.105 264 242 264C240.895 264 240 263.105 240 262C240 260.895 240.895 260 242 260C243.105 260 244 260.895 244 262ZM242 224C243.105 224 244 223.105 244 222C244 220.895 243.105 220 242 220C240.895 220 240 220.895 240 222C240 223.105 240.895 224 242 224ZM244 302C244 303.105 243.105 304 242 304C240.895 304 240 303.105 240 302C240 300.895 240.895 300 242 300C243.105 300 244 300.895 244 302ZM242 364C243.105 364 244 363.105 244 362C244 360.895 243.105 360 242 360C240.895 360 240 360.895 240 362C240 363.105 240.895 364 242 364ZM244 202C244 203.105 243.105 204 242 204C240.895 204 240 203.105 240 202C240 200.895 240.895 200 242 200C243.105 200 244 200.895 244 202ZM242 284C243.105 284 244 283.105 244 282C244 280.895 243.105 280 242 280C240.895 280 240 280.895 240 282C240 283.105 240.895 284 242 284ZM244 342C244 343.105 243.105 344 242 344C240.895 344 240 343.105 240 342C240 340.895 240.895 340 242 340C243.105 340 244 340.895 244 342ZM242 244C243.105 244 244 243.105 244 242C244 240.895 243.105 240 242 240C240.895 240 240 240.895 240 242C240 243.105 240.895 244 242 244ZM244 322C244 323.105 243.105 324 242 324C240.895 324 240 323.105 240 322C240 320.895 240.895 320 242 320C243.105 320 244 320.895 244 322ZM324 262C324 263.105 323.105 264 322 264C320.895 264 320 263.105 320 262C320 260.895 320.895 260 322 260C323.105 260 324 260.895 324 262ZM322 224C323.105 224 324 223.105 324 222C324 220.895 323.105 220 322 220C320.895 220 320 220.895 320 222C320 223.105 320.895 224 322 224ZM324 302C324 303.105 323.105 304 322 304C320.895 304 320 303.105 320 302C320 300.895 320.895 300 322 300C323.105 300 324 300.895 324 302ZM322 364C323.105 364 324 363.105 324 362C324 360.895 323.105 360 322 360C320.895 360 320 360.895 320 362C320 363.105 320.895 364 322 364ZM324 202C324 203.105 323.105 204 322 204C320.895 204 320 203.105 320 202C320 200.895 320.895 200 322 200C323.105 200 324 200.895 324 202ZM322 284C323.105 284 324 283.105 324 282C324 280.895 323.105 280 322 280C320.895 280 320 280.895 320 282C320 283.105 320.895 284 322 284ZM324 342C324 343.105 323.105 344 322 344C320.895 344 320 343.105 320 342C320 340.895 320.895 340 322 340C323.105 340 324 340.895 324 342ZM322 244C323.105 244 324 243.105 324 242C324 240.895 323.105 240 322 240C320.895 240 320 240.895 320 242C320 243.105 320.895 244 322 244ZM324 322C324 323.105 323.105 324 322 324C320.895 324 320 323.105 320 322C320 320.895 320.895 320 322 320C323.105 320 324 320.895 324 322ZM364 262C364 263.105 363.105 264 362 264C360.895 264 360 263.105 360 262C360 260.895 360.895 260 362 260C363.105 260 364 260.895 364 262ZM362 224C363.105 224 364 223.105 364 222C364 220.895 363.105 220 362 220C360.895 220 360 220.895 360 222C360 223.105 360.895 224 362 224ZM364 302C364 303.105 363.105 304 362 304C360.895 304 360 303.105 360 302C360 300.895 360.895 300 362 300C363.105 300 364 300.895 364 302ZM362 364C363.105 364 364 363.105 364 362C364 360.895 363.105 360 362 360C360.895 360 360 360.895 360 362C360 363.105 360.895 364 362 364ZM364 202C364 203.105 363.105 204 362 204C360.895 204 360 203.105 360 202C360 200.895 360.895 200 362 200C363.105 200 364 200.895 364 202ZM362 284C363.105 284 364 283.105 364 282C364 280.895 363.105 280 362 280C360.895 280 360 280.895 360 282C360 283.105 360.895 284 362 284ZM364 342C364 343.105 363.105 344 362 344C360.895 344 360 343.105 360 342C360 340.895 360.895 340 362 340C363.105 340 364 340.895 364 342ZM362 244C363.105 244 364 243.105 364 242C364 240.895 363.105 240 362 240C360.895 240 360 240.895 360 242C360 243.105 360.895 244 362 244ZM364 322C364 323.105 363.105 324 362 324C360.895 324 360 323.105 360 322C360 320.895 360.895 320 362 320C363.105 320 364 320.895 364 322ZM4 262C4 263.105 3.10457 264 2 264C0.895431 264 0 263.105 0 262C0 260.895 0.895431 260 2 260C3.10457 260 4 260.895 4 262ZM2 224C3.10457 224 4 223.105 4 222C4 220.895 3.10457 220 2 220C0.895431 220 0 220.895 0 222C0 223.105 0.895431 224 2 224ZM4 302C4 303.105 3.10457 304 2 304C0.895431 304 0 303.105 0 302C0 300.895 0.895431 300 2 300C3.10457 300 4 300.895 4 302ZM2 364C3.10457 364 4 363.105 4 362C4 360.895 3.10457 360 2 360C0.895431 360 0 360.895 0 362C0 363.105 0.895431 364 2 364ZM4 202C4 203.105 3.10457 204 2 204C0.895431 204 0 203.105 0 202C0 200.895 0.895431 200 2 200C3.10457 200 4 200.895 4 202ZM2 284C3.10457 284 4 283.105 4 282C4 280.895 3.10457 280 2 280C0.895431 280 0 280.895 0 282C0 283.105 0.895431 284 2 284ZM4 342C4 343.105 3.10457 344 2 344C0.895431 344 0 343.105 0 342C0 340.895 0.895431 340 2 340C3.10457 340 4 340.895 4 342ZM2 244C3.10457 244 4 243.105 4 242C4 240.895 3.10457 240 2 240C0.895431 240 0 240.895 0 242C0 243.105 0.895431 244 2 244ZM4 322C4 323.105 3.10457 324 2 324C0.895431 324 0 323.105 0 322C0 320.895 0.895431 320 2 320C3.10457 320 4 320.895 4 322ZM84 262C84 263.105 83.1046 264 82 264C80.8954 264 80 263.105 80 262C80 260.895 80.8954 260 82 260C83.1046 260 84 260.895 84 262ZM82 224C83.1046 224 84 223.105 84 222C84 220.895 83.1046 220 82 220C80.8954 220 80 220.895 80 222C80 223.105 80.8954 224 82 224ZM84 302C84 303.105 83.1046 304 82 304C80.8954 304 80 303.105 80 302C80 300.895 80.8954 300 82 300C83.1046 300 84 300.895 84 302ZM82 364C83.1046 364 84 363.105 84 362C84 360.895 83.1046 360 82 360C80.8954 360 80 360.895 80 362C80 363.105 80.8954 364 82 364ZM84 202C84 203.105 83.1046 204 82 204C80.8954 204 80 203.105 80 202C80 200.895 80.8954 200 82 200C83.1046 200 84 200.895 84 202ZM82 284C83.1046 284 84 283.105 84 282C84 280.895 83.1046 280 82 280C80.8954 280 80 280.895 80 282C80 283.105 80.8954 284 82 284ZM84 342C84 343.105 83.1046 344 82 344C80.8954 344 80 343.105 80 342C80 340.895 80.8954 340 82 340C83.1046 340 84 340.895 84 342ZM82 244C83.1046 244 84 243.105 84 242C84 240.895 83.1046 240 82 240C80.8954 240 80 240.895 80 242C80 243.105 80.8954 244 82 244ZM84 322C84 323.105 83.1046 324 82 324C80.8954 324 80 323.105 80 322C80 320.895 80.8954 320 82 320C83.1046 320 84 320.895 84 322ZM44 262C44 263.105 43.1046 264 42 264C40.8954 264 40 263.105 40 262C40 260.895 40.8954 260 42 260C43.1046 260 44 260.895 44 262ZM42 224C43.1046 224 44 223.105 44 222C44 220.895 43.1046 220 42 220C40.8954 220 40 220.895 40 222C40 223.105 40.8954 224 42 224ZM44 302C44 303.105 43.1046 304 42 304C40.8954 304 40 303.105 40 302C40 300.895 40.8954 300 42 300C43.1046 300 44 300.895 44 302ZM42 364C43.1046 364 44 363.105 44 362C44 360.895 43.1046 360 42 360C40.8954 360 40 360.895 40 362C40 363.105 40.8954 364 42 364ZM44 202C44 203.105 43.1046 204 42 204C40.8954 204 40 203.105 40 202C40 200.895 40.8954 200 42 200C43.1046 200 44 200.895 44 202ZM42 284C43.1046 284 44 283.105 44 282C44 280.895 43.1046 280 42 280C40.8954 280 40 280.895 40 282C40 283.105 40.8954 284 42 284ZM44 342C44 343.105 43.1046 344 42 344C40.8954 344 40 343.105 40 342C40 340.895 40.8954 340 42 340C43.1046 340 44 340.895 44 342ZM42 244C43.1046 244 44 243.105 44 242C44 240.895 43.1046 240 42 240C40.8954 240 40 240.895 40 242C40 243.105 40.8954 244 42 244ZM44 322C44 323.105 43.1046 324 42 324C40.8954 324 40 323.105 40 322C40 320.895 40.8954 320 42 320C43.1046 320 44 320.895 44 322ZM124 262C124 263.105 123.105 264 122 264C120.895 264 120 263.105 120 262C120 260.895 120.895 260 122 260C123.105 260 124 260.895 124 262ZM122 224C123.105 224 124 223.105 124 222C124 220.895 123.105 220 122 220C120.895 220 120 220.895 120 222C120 223.105 120.895 224 122 224ZM124 302C124 303.105 123.105 304 122 304C120.895 304 120 303.105 120 302C120 300.895 120.895 300 122 300C123.105 300 124 300.895 124 302ZM122 364C123.105 364 124 363.105 124 362C124 360.895 123.105 360 122 360C120.895 360 120 360.895 120 362C120 363.105 120.895 364 122 364ZM124 202C124 203.105 123.105 204 122 204C120.895 204 120 203.105 120 202C120 200.895 120.895 200 122 200C123.105 200 124 200.895 124 202ZM122 284C123.105 284 124 283.105 124 282C124 280.895 123.105 280 122 280C120.895 280 120 280.895 120 282C120 283.105 120.895 284 122 284ZM124 342C124 343.105 123.105 344 122 344C120.895 344 120 343.105 120 342C120 340.895 120.895 340 122 340C123.105 340 124 340.895 124 342ZM122 244C123.105 244 124 243.105 124 242C124 240.895 123.105 240 122 240C120.895 240 120 240.895 120 242C120 243.105 120.895 244 122 244ZM124 322C124 323.105 123.105 324 122 324C120.895 324 120 323.105 120 322C120 320.895 120.895 320 122 320C123.105 320 124 320.895 124 322ZM164 262C164 263.105 163.105 264 162 264C160.895 264 160 263.105 160 262C160 260.895 160.895 260 162 260C163.105 260 164 260.895 164 262ZM162 224C163.105 224 164 223.105 164 222C164 220.895 163.105 220 162 220C160.895 220 160 220.895 160 222C160 223.105 160.895 224 162 224ZM164 302C164 303.105 163.105 304 162 304C160.895 304 160 303.105 160 302C160 300.895 160.895 300 162 300C163.105 300 164 300.895 164 302ZM162 364C163.105 364 164 363.105 164 362C164 360.895 163.105 360 162 360C160.895 360 160 360.895 160 362C160 363.105 160.895 364 162 364ZM164 202C164 203.105 163.105 204 162 204C160.895 204 160 203.105 160 202C160 200.895 160.895 200 162 200C163.105 200 164 200.895 164 202ZM162 284C163.105 284 164 283.105 164 282C164 280.895 163.105 280 162 280C160.895 280 160 280.895 160 282C160 283.105 160.895 284 162 284ZM164 342C164 343.105 163.105 344 162 344C160.895 344 160 343.105 160 342C160 340.895 160.895 340 162 340C163.105 340 164 340.895 164 342ZM162 244C163.105 244 164 243.105 164 242C164 240.895 163.105 240 162 240C160.895 240 160 240.895 160 242C160 243.105 160.895 244 162 244ZM164 322C164 323.105 163.105 324 162 324C160.895 324 160 323.105 160 322C160 320.895 160.895 320 162 320C163.105 320 164 320.895 164 322ZM24 262C24 263.105 23.1046 264 22 264C20.8954 264 20 263.105 20 262C20 260.895 20.8954 260 22 260C23.1046 260 24 260.895 24 262ZM22 224C23.1046 224 24 223.105 24 222C24 220.895 23.1046 220 22 220C20.8954 220 20 220.895 20 222C20 223.105 20.8954 224 22 224ZM24 302C24 303.105 23.1046 304 22 304C20.8954 304 20 303.105 20 302C20 300.895 20.8954 300 22 300C23.1046 300 24 300.895 24 302ZM22 364C23.1046 364 24 363.105 24 362C24 360.895 23.1046 360 22 360C20.8954 360 20 360.895 20 362C20 363.105 20.8954 364 22 364ZM24 202C24 203.105 23.1046 204 22 204C20.8954 204 20 203.105 20 202C20 200.895 20.8954 200 22 200C23.1046 200 24 200.895 24 202ZM22 284C23.1046 284 24 283.105 24 282C24 280.895 23.1046 280 22 280C20.8954 280 20 280.895 20 282C20 283.105 20.8954 284 22 284ZM24 342C24 343.105 23.1046 344 22 344C20.8954 344 20 343.105 20 342C20 340.895 20.8954 340 22 340C23.1046 340 24 340.895 24 342ZM22 244C23.1046 244 24 243.105 24 242C24 240.895 23.1046 240 22 240C20.8954 240 20 240.895 20 242C20 243.105 20.8954 244 22 244ZM24 322C24 323.105 23.1046 324 22 324C20.8954 324 20 323.105 20 322C20 320.895 20.8954 320 22 320C23.1046 320 24 320.895 24 322ZM104 262C104 263.105 103.105 264 102 264C100.895 264 100 263.105 100 262C100 260.895 100.895 260 102 260C103.105 260 104 260.895 104 262ZM102 224C103.105 224 104 223.105 104 222C104 220.895 103.105 220 102 220C100.895 220 100 220.895 100 222C100 223.105 100.895 224 102 224ZM104 302C104 303.105 103.105 304 102 304C100.895 304 100 303.105 100 302C100 300.895 100.895 300 102 300C103.105 300 104 300.895 104 302ZM102 364C103.105 364 104 363.105 104 362C104 360.895 103.105 360 102 360C100.895 360 100 360.895 100 362C100 363.105 100.895 364 102 364ZM104 202C104 203.105 103.105 204 102 204C100.895 204 100 203.105 100 202C100 200.895 100.895 200 102 200C103.105 200 104 200.895 104 202ZM102 284C103.105 284 104 283.105 104 282C104 280.895 103.105 280 102 280C100.895 280 100 280.895 100 282C100 283.105 100.895 284 102 284ZM104 342C104 343.105 103.105 344 102 344C100.895 344 100 343.105 100 342C100 340.895 100.895 340 102 340C103.105 340 104 340.895 104 342ZM102 244C103.105 244 104 243.105 104 242C104 240.895 103.105 240 102 240C100.895 240 100 240.895 100 242C100 243.105 100.895 244 102 244ZM104 322C104 323.105 103.105 324 102 324C100.895 324 100 323.105 100 322C100 320.895 100.895 320 102 320C103.105 320 104 320.895 104 322ZM64 262C64 263.105 63.1046 264 62 264C60.8954 264 60 263.105 60 262C60 260.895 60.8954 260 62 260C63.1046 260 64 260.895 64 262ZM62 224C63.1046 224 64 223.105 64 222C64 220.895 63.1046 220 62 220C60.8954 220 60 220.895 60 222C60 223.105 60.8954 224 62 224ZM64 302C64 303.105 63.1046 304 62 304C60.8954 304 60 303.105 60 302C60 300.895 60.8954 300 62 300C63.1046 300 64 300.895 64 302ZM62 364C63.1046 364 64 363.105 64 362C64 360.895 63.1046 360 62 360C60.8954 360 60 360.895 60 362C60 363.105 60.8954 364 62 364ZM64 202C64 203.105 63.1046 204 62 204C60.8954 204 60 203.105 60 202C60 200.895 60.8954 200 62 200C63.1046 200 64 200.895 64 202ZM62 284C63.1046 284 64 283.105 64 282C64 280.895 63.1046 280 62 280C60.8954 280 60 280.895 60 282C60 283.105 60.8954 284 62 284ZM64 342C64 343.105 63.1046 344 62 344C60.8954 344 60 343.105 60 342C60 340.895 60.8954 340 62 340C63.1046 340 64 340.895 64 342ZM62 244C63.1046 244 64 243.105 64 242C64 240.895 63.1046 240 62 240C60.8954 240 60 240.895 60 242C60 243.105 60.8954 244 62 244ZM64 322C64 323.105 63.1046 324 62 324C60.8954 324 60 323.105 60 322C60 320.895 60.8954 320 62 320C63.1046 320 64 320.895 64 322ZM144 262C144 263.105 143.105 264 142 264C140.895 264 140 263.105 140 262C140 260.895 140.895 260 142 260C143.105 260 144 260.895 144 262ZM142 224C143.105 224 144 223.105 144 222C144 220.895 143.105 220 142 220C140.895 220 140 220.895 140 222C140 223.105 140.895 224 142 224ZM144 302C144 303.105 143.105 304 142 304C140.895 304 140 303.105 140 302C140 300.895 140.895 300 142 300C143.105 300 144 300.895 144 302ZM142 364C143.105 364 144 363.105 144 362C144 360.895 143.105 360 142 360C140.895 360 140 360.895 140 362C140 363.105 140.895 364 142 364ZM144 202C144 203.105 143.105 204 142 204C140.895 204 140 203.105 140 202C140 200.895 140.895 200 142 200C143.105 200 144 200.895 144 202ZM142 284C143.105 284 144 283.105 144 282C144 280.895 143.105 280 142 280C140.895 280 140 280.895 140 282C140 283.105 140.895 284 142 284ZM144 342C144 343.105 143.105 344 142 344C140.895 344 140 343.105 140 342C140 340.895 140.895 340 142 340C143.105 340 144 340.895 144 342ZM142 244C143.105 244 144 243.105 144 242C144 240.895 143.105 240 142 240C140.895 240 140 240.895 140 242C140 243.105 140.895 244 142 244ZM144 322C144 323.105 143.105 324 142 324C140.895 324 140 323.105 140 322C140 320.895 140.895 320 142 320C143.105 320 144 320.895 144 322Z" fill="white"/>
</svg>
