<svg width="169" height="30" viewBox="0 0 169 30" fill="none" xmlns="http://www.w3.org/2000/svg">
<path d="M22.1994 21.0618L10.0606 0.475436H0V29.6672H7.46279V9.65135L19.5072 29.6672H24.8917L36.9361 9.65135V29.6672H44.3989V0.475436H34.3383L22.1994 21.0618ZM47.9413 29.6197H55.4041V0.475436H47.9413V29.6197ZM80.0124 0.475436H58.9938V29.6672H80.0124C87.5224 29.6672 94.0878 25.0079 94.0878 15.0713C94.0878 5.13471 87.4752 0.475436 80.0124 0.475436ZM66.4566 11.9334C66.4566 12.7417 66.0315 13.4548 65.3702 13.8352C65.1341 13.9778 64.9924 14.2155 64.9924 14.4532V21.4897C64.9924 21.9176 64.6618 22.2029 64.2839 22.2029C63.8588 22.2029 63.5754 21.87 63.5754 21.4897V14.4532C63.5754 14.168 63.4337 13.9303 63.1975 13.8352C62.5363 13.4548 62.1112 12.7417 62.1112 11.9334V9.74643C62.1112 8.5103 63.1031 7.55943 64.2839 7.55943C65.4647 7.55943 66.4566 8.55785 66.4566 9.74643V11.9334ZM75.5725 23.3914C70.9909 23.3914 67.3068 19.683 67.3068 15.0713C67.3068 10.4596 70.9909 6.75119 75.5725 6.75119C80.1541 6.75119 83.8383 10.4596 83.8383 15.0713C83.8383 19.6355 80.1069 23.3914 75.5725 23.3914ZM89.1756 12.6466C89.1756 13.0745 88.845 13.3597 88.4671 13.3597C88.0892 13.3597 87.7586 13.6926 87.7586 14.0729V21.4422C87.7586 21.87 87.428 22.1553 87.0501 22.1553C86.625 22.1553 86.3416 21.8225 86.3416 21.4422V14.1204C86.3416 13.6926 86.011 13.4073 85.6331 13.4073C85.208 13.4073 84.9246 13.0745 84.9246 12.6941V8.12995C84.9246 7.89223 85.1136 7.65452 85.397 7.65452C85.6804 7.65452 85.8693 7.84469 85.8693 8.12995V11.9334H86.6722V8.12995C86.6722 7.89223 86.8612 7.65452 87.1446 7.65452C87.3807 7.65452 87.6169 7.84469 87.6169 8.12995V11.9334H88.4199V8.12995C88.4199 7.89223 88.6088 7.65452 88.8922 7.65452C89.1756 7.65452 89.3645 7.84469 89.3645 8.12995V12.6466H89.1756ZM150.578 12.0285C142.124 11.5055 140.376 11.1252 140.376 8.84311C140.376 6.6561 142.124 5.99049 149.445 5.99049C157.191 5.99049 160.355 6.79873 160.355 9.98415H167.818C167.818 2.75753 161.206 0 150.248 0C139.384 0 132.913 2.04437 132.913 8.46276C132.913 15.0238 137.92 17.0206 150.531 17.5911C159.93 18.0666 161.584 18.4469 161.584 20.8716C161.584 23.1537 159.222 24.0571 151.381 24.0571C141.935 24.0571 139.479 22.6307 139.479 19.5404H132.016C132.016 27.9556 139.101 30 150.956 30C161.678 30 168.999 28.4311 168.999 20.6339C169.094 13.3122 162.009 12.6941 150.578 12.0285ZM106.793 0.475436L91.8679 29.6672H100.086L103.204 23.439H120.538L123.656 29.6672H131.874L116.854 0.475436H106.793ZM105.896 17.8288L111.8 5.99049L117.657 17.8288H105.896Z" fill="white"/>
</svg>
