<svg width="104" height="104" viewBox="0 0 104 104" fill="none" xmlns="http://www.w3.org/2000/svg">
<rect x="0.5" y="0.5" width="103" height="103" rx="14.5" stroke="#24B2A7"/>
<path d="M49.2242 79.9164C39.0294 76.526 40.1748 66.2508 40.2289 65.8237C40.2646 65.5429 40.2424 65.2578 40.1637 64.9859C40.085 64.7141 39.9514 64.4612 39.7713 64.2429C39.4662 62.9283 39.1528 62.6024 35.3936 55.518C36.7664 54.2422 39.2818 51.3746 38.9615 47.7332C38.6564 44.2929 35.9802 41.2963 31.002 38.8308C30.757 38.7073 30.49 38.6335 30.2164 38.6136C29.9428 38.5937 29.6679 38.6281 29.4076 38.7149C29.1473 38.8017 28.9068 38.9391 28.6999 39.1193C28.4929 39.2994 28.3237 39.5187 28.2019 39.7646C28.08 40.0104 28.0081 40.2779 27.9901 40.5517C27.9721 40.8254 28.0084 41.1001 28.097 41.3597C28.1856 41.6194 28.3247 41.859 28.5063 42.0647C28.6878 42.2703 28.9083 42.4381 29.155 42.5582C32.6854 44.3068 34.6434 46.219 34.8154 48.0854C34.9901 49.9713 33.3191 51.8294 32.3748 52.6434C32.0137 52.6799 31.6687 52.8115 31.375 53.0247L25.8783 57.0599L25.8963 57.0932C24.8189 57.806 23.5612 58.3814 22.9899 58.4036C22.8983 58.0958 22.7514 57.175 23.2159 54.9924C23.3306 54.4527 23.2263 53.8895 22.9258 53.4268C22.6253 52.964 22.1533 52.6396 21.6136 52.5248C21.0739 52.4101 20.5107 52.5145 20.048 52.8149C19.5852 53.1154 19.2608 53.5874 19.146 54.1271C18.8285 55.6192 17.862 60.1591 20.7171 61.9563C21.398 62.3861 22.1482 62.5567 22.9108 62.5567C24.6968 62.5567 26.5494 61.6165 27.8155 60.8123L31.0977 67.1715C29.4184 68.181 28.201 69.5594 27.484 71.3066C25.3902 76.4026 28.5601 82.5899 28.6974 82.8506C28.8236 83.0927 28.9962 83.3077 29.2055 83.4832C29.4148 83.6586 29.6566 83.7912 29.9171 83.8732C30.1775 83.9552 30.4516 83.9851 30.7237 83.9612C30.9957 83.9373 31.2604 83.8601 31.5026 83.7339C31.7448 83.6077 31.9598 83.435 32.1352 83.2257C32.3107 83.0165 32.4432 82.7747 32.5252 82.5142C32.6073 82.2537 32.6372 81.9796 32.6133 81.7076C32.5894 81.4355 32.5121 81.1708 32.3859 80.9286C32.361 80.8815 29.987 76.1613 31.3321 72.8874C32.2888 70.5591 34.165 70.5259 36.1077 69.3042C36.7012 74.4349 39.5869 81.095 47.911 83.8642C48.4346 84.0383 49.0058 83.9974 49.4991 83.7503C49.9924 83.5033 50.3674 83.0704 50.5415 82.5469C50.7157 82.0234 50.6747 81.4521 50.4277 80.9588C50.1806 80.4655 49.7477 80.0905 49.2242 79.9164ZM83.1421 65.9443L83.9047 65.6531C84.9863 65.251 85.5271 64.0446 85.1111 62.9768C85.0163 62.7207 84.8715 62.4859 84.6851 62.2862C84.4987 62.0865 84.2745 61.9258 84.0255 61.8136C83.7765 61.7013 83.5076 61.6397 83.2345 61.6323C82.9614 61.6249 82.6896 61.6718 82.4349 61.7704L81.7138 62.0339L77.8173 51.4259L78.3581 51.2179C78.8632 51.0146 79.2686 50.6216 79.4876 50.1231C79.7065 49.6245 79.7214 49.0601 79.5293 48.5506C79.3371 48.0412 78.953 47.6272 78.4594 47.3975C77.9657 47.1677 77.4017 47.1404 76.8882 47.3214L76.3751 47.5155L73.3938 39.3896L73.5602 39.3342C74.6418 38.9598 75.2242 37.7811 74.8498 36.6995C74.7638 36.44 74.6272 36.2001 74.4478 35.9937C74.2684 35.7874 74.0498 35.6187 73.8047 35.4975C73.5597 35.3762 73.293 35.3048 73.0201 35.2874C72.7472 35.27 72.4736 35.3069 72.2151 35.396L71.9517 35.4792L67.8055 24.1918L68.1522 24.0531C68.6422 23.8354 69.0294 23.4373 69.2336 22.9415C69.4378 22.4457 69.4432 21.8904 69.2487 21.3907C69.0542 20.8911 68.6747 20.4856 68.1891 20.2583C67.7035 20.0311 67.149 19.9996 66.6407 20.1704L38.0477 31.2638C36.9799 31.6798 36.4391 32.8862 36.8551 33.9539C37.0354 34.4254 37.3682 34.7859 37.7703 35.0078L38.4221 33.1774L44.9394 35.4515L44.1629 33.3576L63.9229 25.6894L68.0135 36.8243L47.9901 43.6744L47.2135 41.5806L45.4386 46.6558L42.5821 45.6574C41.9165 46.1843 41.6253 47.0995 41.9165 47.9454C42.2077 48.8051 43.0119 49.3598 43.8855 49.3598C44.1074 49.3598 44.3293 49.3182 44.5511 49.2488L45.4941 48.916L47.2274 53.5614L49.1549 48.084L49.6957 48.2782L49.4322 47.571L69.4557 40.7347L72.4925 48.9992L60.4701 53.5614L66.5575 55.6968L73.9207 52.8958L77.8311 63.5176L58.2791 70.964L56.7122 75.4291L52.2055 73.8483C51.9421 74.3614 51.8866 74.9715 52.1085 75.5401C52.4274 76.3721 53.2178 76.8851 54.0498 76.8851C54.2994 76.8851 54.549 76.8435 54.7847 76.7464L55.6861 76.4136L57.7661 82.0019C58.1724 83.1112 59.4218 83.6354 60.4285 83.2222C60.685 83.1294 60.9207 82.9867 61.1218 82.8024C61.3229 82.618 61.4856 82.3957 61.6003 82.1481C61.715 81.9006 61.7796 81.6328 61.7903 81.3602C61.801 81.0876 61.7576 80.8155 61.6626 80.5598L59.5826 74.9299L79.2594 67.428L81.2146 72.7528C82.1575 75.3237 86.0652 73.9315 85.125 71.3107L83.1421 65.9443Z" fill="#24B2A7"/>
<path d="M46.562 61.0619C46.8809 61.8939 47.6713 62.4069 48.5033 62.4069C48.7529 62.4069 49.0025 62.3653 49.2382 62.2683L49.6265 62.1296L49.89 62.0187L50.306 61.8661L50.4308 62.2128L55.5198 64.0016L54.3828 60.9371L47.491 58.5104C46.5897 59.0096 46.1876 60.0912 46.562 61.0619ZM50.2602 32.735L58.1157 29.9797L60.6394 37.1793L52.7867 39.9332L50.2602 32.735ZM60.7684 55.1311L68.6224 57.885L66.0987 65.0846L58.2432 62.3307L60.7684 55.1311ZM60.6394 44.8767L68.4935 42.1228L71.0172 49.3224L63.1631 52.0763L60.6394 44.8767ZM39.282 34.9412L47.136 37.6952L44.6123 44.8947L36.7568 42.1408L39.282 34.9412ZM50.0258 49.8507L57.8799 52.6046L55.3562 59.8042L47.5021 57.0502L50.0258 49.8507ZM55.8277 73.65L47.9736 70.8961L50.4973 63.6965L58.3528 66.4505L55.8277 73.65Z" fill="#24B2A7"/>
<path d="M26.3817 52.7696C28.6792 52.7696 30.5417 50.9071 30.5417 48.6096C30.5417 46.3121 28.6792 44.4496 26.3817 44.4496C24.0842 44.4496 22.2217 46.3121 22.2217 48.6096C22.2217 50.9071 24.0842 52.7696 26.3817 52.7696Z" fill="#24B2A7"/>
</svg>
