<svg width="104" height="104" viewBox="0 0 104 104" fill="none" xmlns="http://www.w3.org/2000/svg">
<rect x="0.5" y="0.5" width="103" height="103" rx="14.5" stroke="#24B2A7"/>
<path d="M48.7218 49.2087C55.9245 49.2087 61.7634 43.3698 61.7634 36.1671C61.7634 28.9644 55.9245 23.1255 48.7218 23.1255C41.5191 23.1255 35.6802 28.9644 35.6802 36.1671C35.6802 43.3698 41.5191 49.2087 48.7218 49.2087Z" fill="#24B2A7"/>
<path d="M89.9265 64.9418H86.9882C87.5678 61.5625 86.0369 59.3133 86.0369 59.3133C80.6705 52.2912 73.7455 57.7547 73.7455 57.7547C69.4552 52.789 63.7033 57.7547 63.7033 57.7547C61.7994 60.0302 61.2614 62.321 61.5789 64.487L60.2269 65.6726C60.1853 65.4923 60.1298 65.3273 60.0882 65.1484C59.5363 62.1823 60.3517 59.341 62.5163 56.7618L62.5856 56.6509L62.6827 56.5816C63.7989 55.666 65.069 54.9561 66.4336 54.4849C64.5908 53.4723 62.5223 52.941 60.4196 52.9402H58.721L51.6448 69.7563L48.8299 58.43L50.5826 54.8025L44.9958 54.9411L47.1479 58.6103L45.6988 68.597L38.5533 52.9402H37.0224C30.1127 52.9402 24.498 58.5409 24.498 65.4521V80.8746H72.9454V79.4533C72.1592 79.0262 64.007 74.3503 61.0131 67.9633L62.2403 66.8873C64.9166 73.2465 73.7455 78.129 73.7455 78.129C81.497 74.281 84.947 70.4053 86.3267 67.1896H89.9265C90.5478 67.1896 91.058 66.6793 91.058 66.0594C91.058 65.4396 90.5478 64.9418 89.9265 64.9418ZM89.9265 66.8457H79.7872C79.6369 66.8455 79.4899 66.801 79.3649 66.7176C79.2398 66.6342 79.1421 66.5157 79.0842 66.377L78.4352 64.9418L75.6342 71.3288C75.5732 71.4682 75.4729 71.5867 75.3456 71.67C75.2182 71.7532 75.0694 71.7975 74.9172 71.7975H74.8756C74.718 71.7888 74.5666 71.7328 74.4412 71.6368C74.3158 71.5408 74.2222 71.4093 74.1726 71.2594L71.0415 61.4515L68.1032 67.191C68.0485 67.3039 67.9672 67.4018 67.8662 67.4762C67.7652 67.5506 67.6476 67.5993 67.5235 67.6181C67.4005 67.6321 67.2759 67.6181 67.159 67.5773C67.042 67.5365 66.9358 67.4698 66.8482 67.3823L64.2413 64.6797L59.3436 68.9701C59.1877 69.1065 58.9842 69.1758 58.7774 69.1628C58.5706 69.1498 58.3774 69.0556 58.2398 68.9007C58.105 68.7431 58.0381 68.5385 58.0537 68.3317C58.0693 68.1248 58.1661 67.9326 58.323 67.7969L63.7865 63.024C63.9336 62.8908 64.127 62.8205 64.3254 62.8283C64.5237 62.8361 64.7111 62.9213 64.8473 63.0656L67.2199 65.5062L70.5174 59.0651C70.5877 58.9271 70.6972 58.813 70.8321 58.737C70.967 58.661 71.1214 58.6266 71.2759 58.638C71.5934 58.6657 71.8555 58.8723 71.9526 59.176L75.0282 68.8189L77.7183 62.7079C77.8431 62.4305 78.0775 62.2101 78.4352 62.2378C78.5859 62.2378 78.7333 62.2824 78.8587 62.3661C78.9841 62.4497 79.0818 62.5687 79.1396 62.7079L80.2975 65.2871H89.9265C90.3675 65.2871 90.7128 65.6323 90.7128 66.0594C90.7128 66.4865 90.3689 66.8457 89.9265 66.8457Z" fill="#24B2A7"/>
</svg>
