<svg width="104" height="104" viewBox="0 0 104 104" fill="none" xmlns="http://www.w3.org/2000/svg">
<rect x="0.5" y="0.5" width="103" height="103" rx="14.5" stroke="#24B2A7"/>
<path d="M36.0869 36.8493C35.3312 44.2874 35.1745 44.684 35.3742 45.9265C35.2217 46.4284 35.2674 46.9803 35.5364 47.4518C35.732 47.8026 40.3371 56.2738 32.7229 62.7883C32.3319 63.123 32.09 63.5992 32.0502 64.1123C32.0104 64.6254 32.1761 65.1333 32.5107 65.5242C32.8454 65.9151 33.3217 66.1571 33.8347 66.1969C34.3478 66.2367 34.8557 66.071 35.2466 65.7364C41.463 60.4171 41.6114 53.6488 40.319 49.009L41.1455 49.1546C41.3064 49.1823 41.4686 49.1907 41.6308 49.1782C43.4155 49.0423 44.7494 49.45 45.7062 50.4234C48.0192 52.7794 47.6282 57.6909 47.624 57.7395C47.6002 57.9931 47.6265 58.249 47.7015 58.4925C47.7766 58.736 47.8988 58.9623 48.0613 59.1585C48.2238 59.3548 48.4234 59.5171 48.6486 59.6362C48.8738 59.7553 49.1203 59.8289 49.374 59.8527C49.6276 59.8766 49.8835 59.8503 50.127 59.7752C50.3705 59.7002 50.5968 59.5779 50.7931 59.4154C50.9893 59.2529 51.1516 59.0534 51.2707 58.8281C51.3898 58.6029 51.4634 58.3564 51.4873 58.1028C51.5122 57.8296 52.0752 51.3691 48.474 47.7042C47.2399 46.4478 45.7035 45.6852 43.898 45.4023L44.4943 38.756C45.8726 39.0056 47.8029 39.1665 49.3462 38.5383C50.0187 38.278 50.6024 37.8305 51.0283 37.2487C52.8628 34.6903 50.4306 31.1085 49.6319 29.9326C49.3428 29.5069 48.8965 29.2135 48.3911 29.1169C47.8857 29.0203 47.3626 29.1284 46.9369 29.4175C46.5112 29.7066 46.2178 30.1529 46.1212 30.6583C46.0246 31.1637 46.1327 31.6868 46.4218 32.1125C47.5907 33.8319 47.7876 34.6806 47.8154 34.9787C47.3148 35.1604 46.0266 35.1063 44.8451 34.8692L44.8479 34.8345L38.6814 33.2814C38.3528 33.201 38.0088 33.2092 37.6844 33.305C36.5806 32.9334 34.4853 31.9183 33.9723 30.2266C33.4648 28.5529 34.4826 26.2136 36.9162 23.4597C37.0849 23.2688 37.2144 23.0466 37.2972 22.8058C37.38 22.5649 37.4146 22.31 37.399 22.0558C37.3833 21.8016 37.3178 21.5529 37.206 21.324C37.0943 21.0951 36.9385 20.8904 36.7477 20.7217C36.5568 20.553 36.3346 20.4235 36.0938 20.3407C35.8529 20.2578 35.5981 20.2232 35.3438 20.2389C35.0896 20.2545 34.8409 20.3201 34.612 20.4319C34.3831 20.5436 34.1784 20.6993 34.0097 20.8902C30.5777 24.7715 29.3186 28.3005 30.2657 31.3803C31.271 34.639 34.4534 36.2295 36.0869 36.8493Z" fill="#24B2A7"/>
<path d="M42.8996 31.304C43.8533 30.9171 44.6144 30.1674 45.0156 29.2196C45.4168 28.2719 45.4253 27.2036 45.0392 26.2496C44.8481 25.7768 44.5654 25.3466 44.2074 24.9836C43.8493 24.6206 43.4229 24.3321 42.9528 24.1346C42.4828 23.9371 41.9782 23.8346 41.4684 23.833C40.9585 23.8314 40.4534 23.9307 39.982 24.1252C39.0282 24.5123 38.2672 25.2624 37.8662 26.2104C37.4653 27.1585 37.4572 28.227 37.8438 29.181C38.036 29.6526 38.3194 30.0817 38.6776 30.4438C39.0358 30.8058 39.4618 31.0937 39.9314 31.291C40.4009 31.4883 40.9047 31.5911 41.4141 31.5936C41.9234 31.596 42.4281 31.4981 42.8996 31.3053V31.304ZM43.3572 53.6251L46.1499 55.07C46.0806 54.4599 45.9558 53.8331 45.7478 53.2369L44.0519 52.3619L44.6357 51.3191C44.289 51.0002 43.8591 50.7783 43.3433 50.6674L42.4142 52.3328L42.3033 52.5269C42.3726 53.4865 42.3588 54.5279 42.2478 55.6386L43.3572 53.6251Z" fill="#24B2A7"/>
<path d="M74.596 26.3189L59.3316 18.7893C58.9711 18.6229 58.5259 18.7616 58.3581 19.1221C58.315 19.2059 58.2891 19.2974 58.2818 19.3913C58.2745 19.4852 58.286 19.5796 58.3158 19.669C58.3455 19.7584 58.3927 19.841 58.4548 19.9118C58.5168 19.9827 58.5924 20.0405 58.6771 20.0817L59.914 20.678L52.8725 33.4159C53.1082 34.3034 53.1776 35.2629 52.9834 36.2073L54.108 34.18C54.1496 34.2216 54.1912 34.2632 54.2467 34.2909L65.928 40.0691L63.4694 45.7073L51.1087 39.5963L51.6079 38.6949C51.1225 39.1803 50.5526 39.5408 49.8717 39.8181C49.6637 39.9013 49.4419 39.9845 49.22 40.04L46.6075 44.7491C47.0513 44.9433 47.4825 45.179 47.886 45.43L50.4139 40.8609L62.887 47.0136L60.47 52.5283L50.3446 47.7637C50.8577 48.4432 51.2737 49.1809 51.6079 49.945L59.9001 53.8471L57.5109 59.2925L52.928 56.931C52.928 57.6105 52.8864 58.0695 52.8725 58.2372C52.8586 58.3204 52.8586 58.4175 52.8309 58.5007L56.9285 60.6112L54.5393 66.0567L41.3992 59.3202C41.2467 59.764 41.0803 60.2077 40.8584 60.6528L53.9694 67.3754L51.9698 71.9458L38.0795 64.8891C37.7745 65.2496 37.4278 65.6115 37.052 65.9735L51.386 73.2645L48.9136 78.9041L33.871 70.7644L36.0245 66.8762C35.553 67.2922 34.7987 67.5972 33.9819 67.5972C31.816 71.5132 32.8365 69.6634 29.0925 76.4456C28.8984 76.7922 29.0232 77.2235 29.3699 77.4176C29.4808 77.4731 29.6056 77.5008 29.7179 77.5008C29.9814 77.5008 30.231 77.376 30.3558 77.1403L33.1763 72.029L48.3436 80.2242L46.5659 84.2802C46.4134 84.6408 46.5798 85.0568 46.9403 85.2093C47.0374 85.2509 47.1359 85.28 47.2329 85.28C47.5103 85.28 47.7737 85.1136 47.8985 84.8502L73.1248 27.248C73.1386 27.2341 73.1386 27.2203 73.1386 27.2064L73.9581 27.6099C74.0552 27.6515 74.1661 27.6793 74.2771 27.6793C74.5405 27.6793 74.8054 27.5406 74.9302 27.291C75.0131 27.1175 75.0247 26.9183 74.9625 26.7363C74.9003 26.5543 74.7692 26.404 74.5974 26.3176L74.596 26.3189ZM66.5117 38.749L54.8998 33.0124C54.8582 32.9847 54.8166 32.9847 54.775 32.9708L57.6648 27.7347L68.901 33.2911L66.5117 38.749ZM71.8033 26.6795L69.4848 31.971L58.3581 26.4715L61.2064 21.3186L71.874 26.5824C71.8434 26.6087 71.8196 26.642 71.8047 26.6795H71.8033Z" fill="#24B2A7"/>
</svg>
