<svg width="237" height="20" viewBox="0 0 237 20" fill="none" xmlns="http://www.w3.org/2000/svg">
<path d="M12.885 5.36221H10.2288C10.153 4.9266 10.0133 4.54071 9.80975 4.20454C9.60615 3.86363 9.35283 3.57481 9.0498 3.33806C8.74677 3.10132 8.40113 2.92376 8.01287 2.80539C7.62935 2.68229 7.21505 2.62073 6.76998 2.62073C5.97926 2.62073 5.2785 2.8196 4.6677 3.21732C4.05691 3.61032 3.57869 4.18797 3.23304 4.95028C2.8874 5.70785 2.71458 6.63352 2.71458 7.72727C2.71458 8.83996 2.8874 9.77746 3.23304 10.5398C3.58342 11.2973 4.06164 11.8703 4.6677 12.2585C5.2785 12.642 5.97689 12.8338 6.76287 12.8338C7.19848 12.8338 7.60568 12.777 7.98446 12.6633C8.36799 12.545 8.71126 12.3722 9.01429 12.1449C9.32206 11.9176 9.58011 11.6383 9.78844 11.3068C10.0015 10.9754 10.1483 10.5966 10.2288 10.1704L12.885 10.1847C12.7856 10.8759 12.5702 11.5246 12.2387 12.1307C11.912 12.7367 11.4835 13.2718 10.9532 13.7358C10.4229 14.1951 9.80265 14.5549 9.09242 14.8153C8.38219 15.071 7.59384 15.1989 6.72736 15.1989C5.44895 15.1989 4.30785 14.9029 3.30407 14.3111C2.30028 13.7192 1.50956 12.8646 0.931907 11.7472C0.354255 10.6297 0.0654297 9.28977 0.0654297 7.72727C0.0654297 6.16003 0.356623 4.82007 0.939009 3.70738C1.5214 2.58996 2.31448 1.73532 3.31827 1.14346C4.32206 0.551604 5.45842 0.255676 6.72736 0.255676C7.53702 0.255676 8.28986 0.369313 8.98588 0.596585C9.68191 0.823858 10.3022 1.15767 10.8467 1.59801C11.3912 2.03361 11.8386 2.56865 12.189 3.20312C12.5441 3.83285 12.7761 4.55255 12.885 5.36221Z" fill="#2A2E3E"/>
<path d="M13.5878 6.20028V4.0909H23.1333V6.20028H19.6034V15H17.1176V6.20028H13.5878Z" fill="#2A2E3E"/>
<path d="M24.1805 19.0909V4.0909H26.7089V5.89488H26.858C26.9906 5.62973 27.1776 5.34801 27.4191 5.04971C27.6606 4.74668 27.9873 4.48863 28.3992 4.27556C28.8112 4.05776 29.3367 3.94886 29.9759 3.94886C30.8187 3.94886 31.5787 4.16429 32.2558 4.59517C32.9376 5.0213 33.4774 5.6534 33.8751 6.49147C34.2775 7.32481 34.4788 8.34753 34.4788 9.55965C34.4788 10.7576 34.2823 11.7756 33.8893 12.6136C33.4963 13.4517 32.9613 14.0909 32.2842 14.5312C31.6071 14.9716 30.8401 15.1918 29.983 15.1918C29.358 15.1918 28.8396 15.0876 28.4276 14.8793C28.0157 14.6709 27.6843 14.42 27.4333 14.1264C27.1871 13.8281 26.9954 13.5464 26.858 13.2812H26.7515V19.0909H24.1805ZM26.7018 9.54545C26.7018 10.2509 26.8012 10.8688 27.0001 11.3991C27.2037 11.9294 27.4949 12.3437 27.8737 12.642C28.2572 12.9356 28.7212 13.0824 29.2657 13.0824C29.8339 13.0824 30.3097 12.9309 30.6933 12.6278C31.0768 12.3201 31.3656 11.901 31.5597 11.3707C31.7586 10.8357 31.858 10.2273 31.858 9.54545C31.858 8.86837 31.761 8.26704 31.5669 7.74147C31.3727 7.2159 31.0839 6.80397 30.7004 6.50568C30.3169 6.20738 29.8386 6.05823 29.2657 6.05823C28.7165 6.05823 28.2501 6.20265 27.8666 6.49147C27.483 6.7803 27.1919 7.18513 26.993 7.70596C26.7989 8.22679 26.7018 8.83996 26.7018 9.54545Z" fill="#2A2E3E"/>
<path d="M38.8197 15.2202C38.1284 15.2202 37.5058 15.0971 36.9518 14.8508C36.4025 14.5999 35.9669 14.2306 35.645 13.7429C35.3277 13.2552 35.1691 12.6539 35.1691 11.9389C35.1691 11.3234 35.2828 10.8144 35.51 10.4119C35.7373 10.0095 36.0474 9.68749 36.4404 9.44602C36.8334 9.20454 37.2761 9.02225 37.7686 8.89914C38.2657 8.7713 38.7794 8.67897 39.3097 8.62215C39.949 8.55587 40.4674 8.49668 40.8651 8.4446C41.2629 8.38778 41.5517 8.30255 41.7316 8.18892C41.9163 8.07054 42.0086 7.88825 42.0086 7.64204V7.59943C42.0086 7.06439 41.85 6.65009 41.5328 6.35653C41.2155 6.06297 40.7586 5.91619 40.162 5.91619C39.5323 5.91619 39.0328 6.0535 38.6634 6.32812C38.2989 6.60274 38.0526 6.92708 37.9248 7.30113L35.5242 6.96022C35.7136 6.29734 36.0261 5.74337 36.4617 5.29829C36.8973 4.84848 37.43 4.5123 38.0597 4.28977C38.6895 4.06249 39.3855 3.94886 40.1478 3.94886C40.6734 3.94886 41.1966 4.01041 41.7174 4.13352C42.2383 4.25662 42.7141 4.46022 43.145 4.74431C43.5758 5.02367 43.9215 5.40482 44.1819 5.88778C44.4471 6.37073 44.5796 6.97443 44.5796 7.69886V15H42.108V13.5014H42.0228C41.8666 13.8044 41.6464 14.0885 41.3623 14.3537C41.0829 14.6141 40.7302 14.8248 40.3041 14.9858C39.8827 15.142 39.3879 15.2202 38.8197 15.2202ZM39.4873 13.331C40.0034 13.331 40.4508 13.2292 40.8296 13.0256C41.2084 12.8172 41.4996 12.5426 41.7032 12.2017C41.9115 11.8608 42.0157 11.4891 42.0157 11.0866V9.80113C41.9352 9.86742 41.7979 9.92897 41.6038 9.98579C41.4144 10.0426 41.2013 10.0923 40.9646 10.1349C40.7278 10.1776 40.4935 10.2154 40.2615 10.2486C40.0294 10.2817 39.8282 10.3101 39.6578 10.3338C39.2742 10.3859 38.931 10.4711 38.6279 10.5895C38.3249 10.7079 38.0858 10.8736 37.9106 11.0866C37.7354 11.295 37.6478 11.5649 37.6478 11.8963C37.6478 12.3698 37.8206 12.7273 38.1663 12.9687C38.5119 13.2102 38.9523 13.331 39.4873 13.331Z" fill="#2A2E3E"/>
<path d="M48.2671 4.0909L50.4688 8.11789L52.7061 4.0909H55.4262L52.1379 9.54545L55.483 15H52.7771L50.4688 11.0724L48.1819 15H45.4546L48.7785 9.54545L45.5399 4.0909H48.2671Z" fill="#2A2E3E"/>
<path d="M60.7632 15.2131C59.6979 15.2131 58.7746 14.9787 57.9933 14.5099C57.2121 14.0412 56.606 13.3854 56.1752 12.5426C55.749 11.6998 55.536 10.715 55.536 9.58806C55.536 8.46117 55.749 7.47395 56.1752 6.62642C56.606 5.77888 57.2121 5.12073 57.9933 4.65198C58.7746 4.18323 59.6979 3.94886 60.7632 3.94886C61.8286 3.94886 62.7519 4.18323 63.5331 4.65198C64.3144 5.12073 64.9181 5.77888 65.3442 6.62642C65.7751 7.47395 65.9905 8.46117 65.9905 9.58806C65.9905 10.715 65.7751 11.6998 65.3442 12.5426C64.9181 13.3854 64.3144 14.0412 63.5331 14.5099C62.7519 14.9787 61.8286 15.2131 60.7632 15.2131ZM60.7774 13.1534C61.3551 13.1534 61.838 12.9948 62.2263 12.6776C62.6146 12.3556 62.9034 11.9247 63.0928 11.3849C63.2869 10.8452 63.384 10.2438 63.384 9.58096C63.384 8.91335 63.2869 8.30965 63.0928 7.76988C62.9034 7.22537 62.6146 6.79214 62.2263 6.47017C61.838 6.1482 61.3551 5.98721 60.7774 5.98721C60.1856 5.98721 59.6932 6.1482 59.3002 6.47017C58.9119 6.79214 58.6207 7.22537 58.4266 7.76988C58.2372 8.30965 58.1425 8.91335 58.1425 9.58096C58.1425 10.2438 58.2372 10.8452 58.4266 11.3849C58.6207 11.9247 58.9119 12.3556 59.3002 12.6776C59.6932 12.9948 60.1856 13.1534 60.7774 13.1534Z" fill="#2A2E3E"/>
<path d="M67.1727 15V4.0909H71.7536C73.0462 4.0909 74.0666 4.34895 74.8147 4.86505C75.5676 5.38115 75.944 6.10085 75.944 7.02414C75.944 7.63494 75.7309 8.13446 75.3048 8.52272C74.8834 8.90625 74.3081 9.16429 73.5789 9.29687C74.1518 9.34422 74.6537 9.48863 75.0846 9.73011C75.5202 9.97159 75.8611 10.2888 76.1073 10.6818C76.3535 11.0748 76.4767 11.527 76.4767 12.0383C76.4767 12.6397 76.318 13.1629 76.0008 13.6079C75.6883 14.0483 75.2314 14.3916 74.6301 14.6378C74.0335 14.8793 73.309 15 72.4568 15H67.1727ZM69.5803 12.9758H72.4568C72.9303 12.9758 73.3019 12.8646 73.5718 12.642C73.8417 12.4148 73.9767 12.107 73.9767 11.7187C73.9767 11.2689 73.8417 10.9162 73.5718 10.6605C73.3019 10.4001 72.9303 10.2699 72.4568 10.2699H69.5803V12.9758ZM69.5803 8.60795H71.8034C72.1537 8.60795 72.4544 8.55823 72.7053 8.4588C72.9563 8.35464 73.1481 8.21022 73.2806 8.02556C73.4132 7.83617 73.4795 7.61126 73.4795 7.35085C73.4795 6.97679 73.3256 6.68323 73.0178 6.47017C72.7148 6.2571 72.2934 6.15056 71.7536 6.15056H69.5803V8.60795Z" fill="#2A2E3E"/>
<path d="M80.7377 15.2202C80.0464 15.2202 79.4237 15.0971 78.8698 14.8508C78.3205 14.5999 77.8849 14.2306 77.5629 13.7429C77.2457 13.2552 77.0871 12.6539 77.0871 11.9389C77.0871 11.3234 77.2007 10.8144 77.428 10.4119C77.6553 10.0095 77.9654 9.68749 78.3584 9.44602C78.7514 9.20454 79.1941 9.02225 79.6865 8.89914C80.1837 8.7713 80.6974 8.67897 81.2277 8.62215C81.8669 8.55587 82.3854 8.49668 82.7831 8.4446C83.1808 8.38778 83.4697 8.30255 83.6496 8.18892C83.8343 8.07054 83.9266 7.88825 83.9266 7.64204V7.59943C83.9266 7.06439 83.768 6.65009 83.4507 6.35653C83.1335 6.06297 82.6766 5.91619 82.08 5.91619C81.4502 5.91619 80.9507 6.0535 80.5814 6.32812C80.2168 6.60274 79.9706 6.92708 79.8428 7.30113L77.4422 6.96022C77.6316 6.29734 77.9441 5.74337 78.3797 5.29829C78.8153 4.84848 79.348 4.5123 79.9777 4.28977C80.6075 4.06249 81.3035 3.94886 82.0658 3.94886C82.5914 3.94886 83.1146 4.01041 83.6354 4.13352C84.1562 4.25662 84.6321 4.46022 85.0629 4.74431C85.4938 5.02367 85.8395 5.40482 86.0999 5.88778C86.365 6.37073 86.4976 6.97443 86.4976 7.69886V15H84.026V13.5014H83.9408C83.7845 13.8044 83.5644 14.0885 83.2803 14.3537C83.0009 14.6141 82.6482 14.8248 82.222 14.9858C81.8006 15.142 81.3058 15.2202 80.7377 15.2202ZM81.4053 13.331C81.9214 13.331 82.3688 13.2292 82.7476 13.0256C83.1264 12.8172 83.4176 12.5426 83.6212 12.2017C83.8295 11.8608 83.9337 11.4891 83.9337 11.0866V9.80113C83.8532 9.86742 83.7159 9.92897 83.5218 9.98579C83.3324 10.0426 83.1193 10.0923 82.8825 10.1349C82.6458 10.1776 82.4114 10.2154 82.1794 10.2486C81.9474 10.2817 81.7462 10.3101 81.5757 10.3338C81.1922 10.3859 80.8489 10.4711 80.5459 10.5895C80.2429 10.7079 80.0038 10.8736 79.8286 11.0866C79.6534 11.295 79.5658 11.5649 79.5658 11.8963C79.5658 12.3698 79.7386 12.7273 80.0843 12.9687C80.4299 13.2102 80.8702 13.331 81.4053 13.331Z" fill="#2A2E3E"/>
<path d="M95.5757 8.48011V10.5895H89.7661V8.48011H95.5757ZM90.5615 4.0909V15H88.0828V4.0909H90.5615ZM97.259 4.0909V15H94.7874V4.0909H97.259Z" fill="#2A2E3E"/>
<path d="M101.339 11.5199L105.707 4.0909H108.349V15H105.863V7.56392L101.509 15H98.8602V4.0909H101.339V11.5199Z" fill="#2A2E3E"/>
<path d="M114.819 15.2131C113.725 15.2131 112.78 14.9858 111.985 14.5312C111.194 14.072 110.586 13.4233 110.16 12.5852C109.733 11.7424 109.52 10.7505 109.52 9.60937C109.52 8.48721 109.733 7.50236 110.16 6.65482C110.59 5.80255 111.192 5.13967 111.964 4.66619C112.735 4.18797 113.642 3.94886 114.684 3.94886C115.356 3.94886 115.991 4.05776 116.587 4.27556C117.188 4.48863 117.719 4.82007 118.178 5.26988C118.642 5.71969 119.007 6.29261 119.272 6.98863C119.537 7.67992 119.669 8.50378 119.669 9.46022V10.2486H110.728V8.51562H117.205C117.2 8.0232 117.094 7.58522 116.885 7.2017C116.677 6.81344 116.386 6.50804 116.012 6.28551C115.642 6.06297 115.212 5.9517 114.719 5.9517C114.194 5.9517 113.732 6.07954 113.334 6.33522C112.937 6.58617 112.626 6.91761 112.404 7.32954C112.186 7.73674 112.075 8.18418 112.07 8.67187V10.1847C112.07 10.8191 112.186 11.3636 112.418 11.8182C112.65 12.268 112.974 12.6136 113.391 12.8551C113.808 13.0919 114.295 13.2102 114.854 13.2102C115.228 13.2102 115.567 13.1581 115.87 13.054C116.173 12.9451 116.436 12.7865 116.658 12.5781C116.881 12.3698 117.049 12.1117 117.162 11.804L119.563 12.0739C119.411 12.7083 119.123 13.2623 118.696 13.7358C118.275 14.2045 117.735 14.5691 117.077 14.8295C116.419 15.0852 115.666 15.2131 114.819 15.2131Z" fill="#2A2E3E"/>
<path d="M127.457 7.88352V10H120.908V7.88352H127.457Z" fill="#2A2E3E"/>
<path d="M129.161 15V4.0909H133.742C135.035 4.0909 136.055 4.34895 136.803 4.86505C137.556 5.38115 137.932 6.10085 137.932 7.02414C137.932 7.63494 137.719 8.13446 137.293 8.52272C136.872 8.90625 136.296 9.16429 135.567 9.29687C136.14 9.34422 136.642 9.48863 137.073 9.73011C137.508 9.97159 137.849 10.2888 138.096 10.6818C138.342 11.0748 138.465 11.527 138.465 12.0383C138.465 12.6397 138.306 13.1629 137.989 13.6079C137.677 14.0483 137.22 14.3916 136.618 14.6378C136.022 14.8793 135.297 15 134.445 15H129.161ZM131.569 12.9758H134.445C134.919 12.9758 135.29 12.8646 135.56 12.642C135.83 12.4148 135.965 12.107 135.965 11.7187C135.965 11.2689 135.83 10.9162 135.56 10.6605C135.29 10.4001 134.919 10.2699 134.445 10.2699H131.569V12.9758ZM131.569 8.60795H133.792C134.142 8.60795 134.443 8.55823 134.694 8.4588C134.945 8.35464 135.136 8.21022 135.269 8.02556C135.401 7.83617 135.468 7.61126 135.468 7.35085C135.468 6.97679 135.314 6.68323 135.006 6.47017C134.703 6.2571 134.282 6.15056 133.742 6.15056H131.569V8.60795Z" fill="#2A2E3E"/>
<path d="M141.327 7.64204H144.544C145.936 7.64204 147.013 7.98058 147.776 8.65767C148.538 9.33475 148.921 10.2225 148.926 11.321C148.921 12.036 148.746 12.6704 148.401 13.2244C148.06 13.7784 147.563 14.214 146.909 14.5312C146.26 14.8437 145.472 15 144.544 15H139.587V4.0909H142.065V12.8906H144.544C145.103 12.8906 145.562 12.7486 145.922 12.4645C146.282 12.1757 146.462 11.8063 146.462 11.3565C146.462 10.883 146.282 10.4972 145.922 10.1989C145.562 9.90056 145.103 9.75142 144.544 9.75142H141.327V7.64204ZM150.283 15V4.0909H152.854V15H150.283Z" fill="#2A2E3E"/>
<path d="M161.721 4.0909V6.20028H157.019V15H154.505V4.0909H161.721Z" fill="#2A2E3E"/>
<path d="M167.091 15.2131C166.026 15.2131 165.103 14.9787 164.321 14.5099C163.54 14.0412 162.934 13.3854 162.503 12.5426C162.077 11.6998 161.864 10.715 161.864 9.58806C161.864 8.46117 162.077 7.47395 162.503 6.62642C162.934 5.77888 163.54 5.12073 164.321 4.65198C165.103 4.18323 166.026 3.94886 167.091 3.94886C168.157 3.94886 169.08 4.18323 169.861 4.65198C170.642 5.12073 171.246 5.77888 171.672 6.62642C172.103 7.47395 172.319 8.46117 172.319 9.58806C172.319 10.715 172.103 11.6998 171.672 12.5426C171.246 13.3854 170.642 14.0412 169.861 14.5099C169.08 14.9787 168.157 15.2131 167.091 15.2131ZM167.106 13.1534C167.683 13.1534 168.166 12.9948 168.554 12.6776C168.943 12.3556 169.232 11.9247 169.421 11.3849C169.615 10.8452 169.712 10.2438 169.712 9.58096C169.712 8.91335 169.615 8.30965 169.421 7.76988C169.232 7.22537 168.943 6.79214 168.554 6.47017C168.166 6.1482 167.683 5.98721 167.106 5.98721C166.514 5.98721 166.021 6.1482 165.628 6.47017C165.24 6.79214 164.949 7.22537 164.755 7.76988C164.565 8.30965 164.471 8.91335 164.471 9.58096C164.471 10.2438 164.565 10.8452 164.755 11.3849C164.949 11.9247 165.24 12.3556 165.628 12.6776C166.021 12.9948 166.514 13.1534 167.106 13.1534Z" fill="#2A2E3E"/>
<path d="M172.535 18.1676V12.8835H173.401C173.633 12.7036 173.827 12.4597 173.984 12.152C174.14 11.8395 174.268 11.4725 174.367 11.0511C174.471 10.625 174.557 10.1491 174.623 9.62357C174.689 9.09327 174.748 8.52272 174.801 7.91193L175.113 4.0909H182.997V12.8835H184.687V18.1676H182.201V15H175.063V18.1676H172.535ZM176.043 12.8835H180.539V6.16477H177.343L177.173 7.91193C177.078 9.06723 176.952 10.0568 176.796 10.8807C176.64 11.7045 176.389 12.3722 176.043 12.8835Z" fill="#2A2E3E"/>
<path d="M193.099 8.48011V10.5895H187.29V8.48011H193.099ZM188.085 4.0909V15H185.606V4.0909H188.085ZM194.782 4.0909V15H192.311V4.0909H194.782Z" fill="#2A2E3E"/>
<path d="M201.142 15.2131C200.077 15.2131 199.154 14.9787 198.372 14.5099C197.591 14.0412 196.985 13.3854 196.554 12.5426C196.128 11.6998 195.915 10.715 195.915 9.58806C195.915 8.46117 196.128 7.47395 196.554 6.62642C196.985 5.77888 197.591 5.12073 198.372 4.65198C199.154 4.18323 200.077 3.94886 201.142 3.94886C202.207 3.94886 203.131 4.18323 203.912 4.65198C204.693 5.12073 205.297 5.77888 205.723 6.62642C206.154 7.47395 206.369 8.46117 206.369 9.58806C206.369 10.715 206.154 11.6998 205.723 12.5426C205.297 13.3854 204.693 14.0412 203.912 14.5099C203.131 14.9787 202.207 15.2131 201.142 15.2131ZM201.156 13.1534C201.734 13.1534 202.217 12.9948 202.605 12.6776C202.993 12.3556 203.282 11.9247 203.472 11.3849C203.666 10.8452 203.763 10.2438 203.763 9.58096C203.763 8.91335 203.666 8.30965 203.472 7.76988C203.282 7.22537 202.993 6.79214 202.605 6.47017C202.217 6.1482 201.734 5.98721 201.156 5.98721C200.564 5.98721 200.072 6.1482 199.679 6.47017C199.291 6.79214 199 7.22537 198.805 7.76988C198.616 8.30965 198.521 8.91335 198.521 9.58096C198.521 10.2438 198.616 10.8452 198.805 11.3849C199 11.9247 199.291 12.3556 199.679 12.6776C200.072 12.9948 200.564 13.1534 201.156 13.1534Z" fill="#2A2E3E"/>
<path d="M209.135 15.1562C208.705 15.1562 208.335 15.0047 208.027 14.7017C207.72 14.3987 207.568 14.0294 207.573 13.5937C207.568 13.1676 207.72 12.803 208.027 12.5C208.335 12.197 208.705 12.0454 209.135 12.0454C209.552 12.0454 209.914 12.197 210.222 12.5C210.535 12.803 210.693 13.1676 210.698 13.5937C210.693 13.8826 210.617 14.1454 210.471 14.3821C210.329 14.6188 210.139 14.8082 209.902 14.9503C209.67 15.0876 209.415 15.1562 209.135 15.1562Z" fill="#2A2E3E"/>
<path d="M212.352 19.0909V4.0909H214.881V5.89488H215.03C215.162 5.62973 215.35 5.34801 215.591 5.04971C215.832 4.74668 216.159 4.48863 216.571 4.27556C216.983 4.05776 217.509 3.94886 218.148 3.94886C218.991 3.94886 219.751 4.16429 220.428 4.59517C221.109 5.0213 221.649 5.6534 222.047 6.49147C222.449 7.32481 222.651 8.34753 222.651 9.55965C222.651 10.7576 222.454 11.7756 222.061 12.6136C221.668 13.4517 221.133 14.0909 220.456 14.5312C219.779 14.9716 219.012 15.1918 218.155 15.1918C217.53 15.1918 217.011 15.0876 216.6 14.8793C216.188 14.6709 215.856 14.42 215.605 14.1264C215.359 13.8281 215.167 13.5464 215.03 13.2812H214.923V19.0909H212.352ZM214.874 9.54545C214.874 10.2509 214.973 10.8688 215.172 11.3991C215.376 11.9294 215.667 12.3437 216.046 12.642C216.429 12.9356 216.893 13.0824 217.438 13.0824C218.006 13.0824 218.482 12.9309 218.865 12.6278C219.249 12.3201 219.538 11.901 219.732 11.3707C219.93 10.8357 220.03 10.2273 220.03 9.54545C220.03 8.86837 219.933 8.26704 219.739 7.74147C219.545 7.2159 219.256 6.80397 218.872 6.50568C218.489 6.20738 218.011 6.05823 217.438 6.05823C216.888 6.05823 216.422 6.20265 216.038 6.49147C215.655 6.7803 215.364 7.18513 215.165 7.70596C214.971 8.22679 214.874 8.83996 214.874 9.54545Z" fill="#2A2E3E"/>
<path d="M228.803 18.7074V0.45454H231.381V18.7074H228.803ZM228.803 15.2131C228.002 15.2131 227.271 15.0781 226.608 14.8082C225.945 14.5383 225.372 14.1548 224.889 13.6577C224.411 13.1605 224.039 12.5687 223.774 11.8821C223.514 11.1908 223.384 10.4261 223.384 9.58806C223.384 8.75 223.514 7.98532 223.774 7.29403C224.039 6.60274 224.411 6.00852 224.889 5.51136C225.372 5.00946 225.945 4.62357 226.608 4.35369C227.271 4.0838 228.002 3.94886 228.803 3.94886H229.35V15.2131H228.803ZM228.803 13.1392H229.122V6.02272H228.803C228.348 6.02272 227.946 6.11742 227.595 6.30681C227.25 6.49147 226.958 6.74952 226.722 7.08096C226.49 7.40767 226.312 7.78645 226.189 8.21732C226.071 8.64346 226.011 9.10037 226.011 9.58806C226.011 10.2367 226.118 10.831 226.331 11.3707C226.544 11.9058 226.857 12.3343 227.269 12.6562C227.685 12.9782 228.197 13.1392 228.803 13.1392ZM231.381 15.2131H230.834V3.94886H231.381C232.181 3.94886 232.913 4.0838 233.575 4.35369C234.238 4.62357 234.809 5.00946 235.287 5.51136C235.77 6.00852 236.142 6.60274 236.402 7.29403C236.667 7.98532 236.8 8.75 236.8 9.58806C236.8 10.4261 236.667 11.1908 236.402 11.8821C236.142 12.5687 235.77 13.1605 235.287 13.6577C234.809 14.1548 234.238 14.5383 233.575 14.8082C232.913 15.0781 232.181 15.2131 231.381 15.2131ZM231.381 13.1392C231.84 13.1392 232.243 13.0469 232.588 12.8622C232.934 12.6776 233.223 12.4219 233.455 12.0952C233.691 11.7685 233.869 11.392 233.987 10.9659C234.106 10.535 234.165 10.0758 234.165 9.58806C234.165 8.93939 234.061 8.34517 233.852 7.80539C233.644 7.26562 233.332 6.83475 232.915 6.51278C232.503 6.18607 231.992 6.02272 231.381 6.02272H231.061V13.1392H231.381Z" fill="#2A2E3E"/>
</svg>
