<svg width="56" height="56" viewBox="0 0 56 56" fill="none" xmlns="http://www.w3.org/2000/svg">
<rect x="0.5" y="0.5" width="55" height="55" rx="9.5" stroke="#24B2A7"/>
<path d="M20.5 26.125H23.625V31.125H20.5V26.125ZM26.125 22.375H29.25V31.125H26.125V22.375ZM31.75 24.875H34.875V31.125H31.75V24.875ZM37.375 21.125H40.5V31.125H37.375V21.125ZM45.5 9.875H42.375V11.125H43.9912L38 17.1163L32.8169 11.9331C32.6997 11.816 32.5407 11.7501 32.375 11.7501C32.2093 11.7501 32.0503 11.816 31.9331 11.9331L24.875 18.9913L20.9419 15.0581C20.8247 14.941 20.6657 14.8751 20.5 14.8751C20.3343 14.8751 20.1753 14.941 20.0581 15.0581L11.3081 23.8081L12.1919 24.6919L20.5 16.3837L24.4331 20.3169C24.5503 20.434 24.7093 20.4999 24.875 20.4999C25.0407 20.4999 25.1997 20.434 25.3169 20.3169L32.375 13.2587L37.5581 18.4419C37.6753 18.559 37.8343 18.6249 38 18.6249C38.1657 18.6249 38.3247 18.559 38.4419 18.4419L44.875 12.0087V13.625H46.125V10.5C46.125 10.3342 46.0592 10.1753 45.9419 10.0581C45.8247 9.94085 45.6658 9.875 45.5 9.875ZM45.9175 32.4825C45.603 32.0006 45.1215 31.652 44.5655 31.5037C44.0095 31.3555 43.4183 31.418 42.9056 31.6794L39.4881 33.4294C39.7213 33.9848 39.7466 34.6056 39.5594 35.1781C39.3722 35.7506 38.985 36.2365 38.4688 36.5469L31.5131 40.6719C29.882 41.6437 27.9391 41.9499 26.0881 41.5269L19.8031 40.0225L20.0938 38.8069L26.3662 40.3069C27.9047 40.6568 29.5188 40.4024 30.875 39.5963L37.83 35.4712C38.114 35.3016 38.3198 35.0268 38.4026 34.7065C38.4855 34.3862 38.4387 34.0461 38.2725 33.76C37.909 33.1307 37.3176 32.6653 36.6205 32.46C35.9234 32.2546 35.174 32.3251 34.5275 32.6569L29.4831 35.2456C29.1302 35.427 28.7387 35.5203 28.3419 35.5177C27.9451 35.5151 27.5549 35.4166 27.2044 35.2306L23.7669 33.405C22.6273 32.8022 21.3496 32.509 20.0613 32.5545C18.773 32.6 17.5192 32.9827 16.425 33.6644L18.385 43.0075L19.4287 42.7825C19.9768 42.6647 20.5412 42.6423 21.0969 42.7163L28.9037 43.5725C30.3723 43.7683 31.8617 43.4202 33.0912 42.5938L45.5744 34.2188C45.848 34.0325 46.0376 33.7462 46.1021 33.4215C46.1666 33.0969 46.101 32.7599 45.9194 32.4831L45.9175 32.4825ZM9.875 32.6794L12.6962 46.125L17.5456 45.0813L14.7238 31.6356L9.875 32.6794ZM12.3294 35.3419L12.0725 34.1194L13.2956 33.8625L13.5525 35.0844L12.3294 35.3419Z" fill="#24B2A7"/>
</svg>
