<svg width="56" height="56" viewBox="0 0 56 56" fill="none" xmlns="http://www.w3.org/2000/svg">
<rect x="0.5" y="0.5" width="55" height="55" rx="9.5" stroke="#24B2A7"/>
<path d="M33.0825 19.5625L31.2244 16.3125L27.9556 24.4856C27.9087 24.601 27.8283 24.6997 27.7248 24.7691C27.6214 24.8385 27.4996 24.8753 27.375 24.875H27.3494C27.2206 24.8699 27.0965 24.8252 26.9941 24.7469C26.8917 24.6686 26.8161 24.5605 26.7775 24.4375L24.6875 17.6487L23.5331 19.5719C23.4778 19.664 23.3997 19.7402 23.3063 19.7933C23.2129 19.8464 23.1074 19.8745 23 19.875H18.625V18.625H22.6462L24.3394 15.8031C24.4016 15.6996 24.4924 15.6164 24.6009 15.5634C24.7094 15.5104 24.8309 15.49 24.9507 15.5046C25.0706 15.5192 25.1837 15.5682 25.2762 15.6457C25.3688 15.7232 25.437 15.8258 25.4725 15.9413L27.4519 22.375L30.5444 14.6431C30.5878 14.5335 30.6613 14.4383 30.7565 14.3686C30.8517 14.299 30.9646 14.2577 31.0823 14.2495C31.1999 14.2414 31.3175 14.2666 31.4214 14.3225C31.5253 14.3783 31.6112 14.4624 31.6694 14.565L33.9875 18.625H39.6125C40.6069 14.4894 38.4125 12.2856 38.4125 12.2856C37.854 11.5382 37.129 10.9312 36.2951 10.5128C35.4611 10.0944 34.5412 9.87599 33.6081 9.875C30.4037 9.875 28 12.2856 28 12.2856C28 12.2856 25.5963 9.875 22.3919 9.875C21.4584 9.87561 20.538 10.0938 19.7036 10.5122C18.8691 10.9307 18.1438 11.5379 17.585 12.2856C17.585 12.2856 10.375 19.5181 28 32.375C34.96 27.2981 38.0456 23.0988 39.2331 19.875H33.625C33.5151 19.8752 33.407 19.8464 33.3118 19.7916C33.2166 19.7367 33.1375 19.6577 33.0825 19.5625ZM44.875 17.375C44.4886 17.3766 44.1121 17.4976 43.7971 17.7213C43.482 17.9451 43.2438 18.2607 43.115 18.625H39.615C39.512 19.0487 39.3845 19.4661 39.2331 19.875H43.115C43.2301 20.1982 43.4319 20.4836 43.6983 20.6999C43.9646 20.9162 44.2853 21.0552 44.6253 21.1016C44.9653 21.148 45.3115 21.1 45.626 20.9629C45.9406 20.8259 46.2114 20.605 46.409 20.3244C46.6065 20.0439 46.7231 19.7144 46.746 19.372C46.769 19.0297 46.6974 18.6876 46.539 18.3832C46.3807 18.0787 46.1418 17.8237 45.8483 17.6459C45.5548 17.4681 45.2181 17.3744 44.875 17.375ZM44.875 19.875C44.7514 19.875 44.6306 19.8383 44.5278 19.7697C44.425 19.701 44.3449 19.6034 44.2976 19.4892C44.2503 19.375 44.2379 19.2493 44.262 19.1281C44.2861 19.0068 44.3456 18.8955 44.4331 18.8081C44.5205 18.7206 44.6318 18.6611 44.7531 18.637C44.8743 18.6129 45 18.6253 45.1142 18.6726C45.2284 18.7199 45.326 18.8 45.3947 18.9028C45.4633 19.0055 45.5 19.1264 45.5 19.25C45.5 19.4158 45.4342 19.5747 45.3169 19.6919C45.1997 19.8092 45.0408 19.875 44.875 19.875ZM9.25 18.625H14.25V19.875H9.25V18.625Z" fill="#24B2A7"/>
<path d="M45.9175 32.4825C45.603 32.0006 45.1215 31.652 44.5655 31.5037C44.0095 31.3555 43.4183 31.418 42.9056 31.6794L39.4881 33.4294C39.7213 33.9848 39.7466 34.6056 39.5594 35.1781C39.3722 35.7506 38.985 36.2366 38.4687 36.5469L31.5131 40.6719C29.882 41.6437 27.9391 41.9499 26.0881 41.5269L19.8031 40.0225L20.0937 38.8069L26.3662 40.3069C27.9047 40.6568 29.5188 40.4024 30.875 39.5963L37.83 35.4713C38.114 35.3016 38.3198 35.0268 38.4026 34.7065C38.4854 34.3862 38.4387 34.0461 38.2725 33.76C37.909 33.1307 37.3176 32.6653 36.6205 32.46C35.9234 32.2546 35.174 32.3251 34.5275 32.6569L29.4831 35.2456C29.1302 35.427 28.7387 35.5204 28.3419 35.5177C27.9451 35.5151 27.5549 35.4166 27.2044 35.2306L23.7669 33.405C22.6273 32.8022 21.3496 32.509 20.0613 32.5545C18.773 32.6 17.5192 32.9827 16.425 33.6644L18.385 43.0075L19.4287 42.7825C19.9768 42.6647 20.5412 42.6423 21.0969 42.7163L28.9037 43.5725C30.3723 43.7683 31.8617 43.4202 33.0912 42.5938L45.5744 34.2188C45.848 34.0325 46.0376 33.7462 46.1021 33.4216C46.1666 33.0969 46.101 32.7599 45.9194 32.4831L45.9175 32.4825ZM9.875 32.6794L12.6962 46.125L17.5456 45.0813L14.7237 31.6356L9.875 32.6794ZM12.3294 35.3419L12.0725 34.1194L13.2956 33.8625L13.5525 35.0844L12.3294 35.3419Z" fill="#24B2A7"/>
</svg>
