<svg width="56" height="56" viewBox="0 0 56 56" fill="none" xmlns="http://www.w3.org/2000/svg">
<rect x="0.5" y="0.5" width="55" height="55" rx="9.5" stroke="#24B2A7"/>
<path d="M17.8794 32.8837C17.99 32.8131 18.1113 32.7425 18.2463 32.6719C17.6725 30.9757 17.3782 29.1975 17.375 27.4069V17.5C17.3751 17.3484 17.4303 17.2019 17.5303 17.088C17.6304 16.974 17.7684 16.9003 17.9188 16.8806C21.3483 16.4306 24.665 15.35 27.7013 13.6931C27.7929 13.6432 27.8956 13.6171 28 13.6171C28.1044 13.6171 28.2071 13.6432 28.2988 13.6931C31.3353 15.3499 34.6522 16.4305 38.0819 16.8806C38.2321 16.9005 38.37 16.9742 38.4699 17.0882C38.5698 17.2021 38.6249 17.3485 38.625 17.5V27.4069C38.6207 30.4091 37.8021 33.3539 36.2563 35.9275L36.745 36.1944L39.4681 36.6144C40.9678 33.7771 41.7512 30.6161 41.75 27.4069V13.9944C36.983 13.9908 32.316 12.6268 28.2975 10.0625L28 9.875L27.7025 10.0625C23.684 12.6269 19.017 13.9909 14.25 13.9944V27.4069C14.2496 29.7439 14.665 32.0623 15.4769 34.2537L17.8794 32.8837Z" fill="#24B2A7"/>
<path d="M28 14.9494C25.0725 16.5032 21.9025 17.5487 18.625 18.0412V27.4069C18.628 29.0454 18.8943 30.6728 19.4137 32.2269C21.0043 31.8565 22.6365 31.6961 24.2688 31.75C26.6047 31.6928 28.9244 32.1518 31.0625 33.0944L35.1569 35.3287C36.6031 32.9391 37.37 30.2001 37.375 27.4069V18.0412C34.0976 17.5485 30.9275 16.503 28 14.9494ZM28 27.8925L26.3837 29.5087C26.1493 29.7431 25.8315 29.8747 25.5 29.8747C25.1685 29.8747 24.8507 29.7431 24.6163 29.5087L21.125 26.0175L23 24.1425L25.5 26.6425L28 24.1425L33 19.1425L34.875 21.0175L28 27.8925Z" fill="#24B2A7"/>
<path d="M16.75 46.125C18.1307 46.125 19.25 45.0057 19.25 43.625C19.25 42.2443 18.1307 41.125 16.75 41.125C15.3693 41.125 14.25 42.2443 14.25 43.625C14.25 45.0057 15.3693 46.125 16.75 46.125Z" fill="#24B2A7"/>
<path d="M46.6002 41.2937L46.1064 39.6875C46.0944 39.6551 46.0798 39.6237 46.0627 39.5937C45.8758 39.3073 45.6225 39.0703 45.3243 38.9027C45.0262 38.7352 44.692 38.642 44.3502 38.6312L36.4002 37.4062C36.3605 37.4014 36.3223 37.3886 36.2877 37.3687L30.4689 34.1937C28.5132 33.3513 26.3977 32.944 24.2689 33C20.0439 33 18.9627 33.675 18.5002 33.9687L15.0252 35.9562C14.8314 36.0679 14.6114 36.1262 14.3877 36.125H12.4002C11.1189 36.125 10.2127 36.9937 9.91892 38.475L9.28767 41C9.23237 41.2911 9.24415 41.5911 9.32213 41.877C9.4001 42.1629 9.54222 42.4272 9.73767 42.65C9.98721 42.9495 10.2984 43.1916 10.65 43.3598C11.0016 43.5281 11.3854 43.6185 11.7752 43.625H13.0002C13.0002 42.6304 13.3953 41.6766 14.0985 40.9733C14.8018 40.2701 15.7556 39.875 16.7502 39.875C17.7447 39.875 18.6986 40.2701 19.4018 40.9733C20.1051 41.6766 20.5002 42.6304 20.5002 43.625H34.8752C34.8752 42.6304 35.2703 41.6766 35.9735 40.9733C36.6768 40.2701 37.6306 39.875 38.6252 39.875C39.6197 39.875 40.5736 40.2701 41.2768 40.9733C41.9801 41.6766 42.3752 42.6304 42.3752 43.625H45.1002C45.3759 43.6245 45.6471 43.555 45.889 43.4227C46.1309 43.2904 46.3358 43.0997 46.485 42.8678C46.6341 42.636 46.7229 42.3704 46.743 42.0954C46.7631 41.8205 46.714 41.5448 46.6002 41.2937ZM23.6439 36.9937C21.2502 36.8625 18.8377 36.6812 16.7064 36.4312L19.1627 35.025C19.4814 34.825 20.3064 34.3125 23.6439 34.2562V36.9937ZM24.8939 37.0625V34.2625C26.6044 34.2717 28.2958 34.6223 29.8689 35.2937L33.6252 37.3437C31.4002 37.3062 28.2189 37.2312 24.8939 37.0625Z" fill="#24B2A7"/>
<path d="M38.625 46.125C40.0057 46.125 41.125 45.0057 41.125 43.625C41.125 42.2443 40.0057 41.125 38.625 41.125C37.2443 41.125 36.125 42.2443 36.125 43.625C36.125 45.0057 37.2443 46.125 38.625 46.125Z" fill="#24B2A7"/>
</svg>
