<svg width="56" height="56" viewBox="0 0 56 56" fill="none" xmlns="http://www.w3.org/2000/svg">
<rect x="0.5" y="0.5" width="55" height="55" rx="9.5" stroke="#24B2A7"/>
<path d="M13.8583 20.8125L23.6251 13L33.392 20.8125C33.9098 21.2266 34.5708 21.4181 35.2298 21.3449C35.8887 21.2716 36.4916 20.9396 36.9058 20.4219L25.1876 11.0481C24.7442 10.6931 24.1932 10.4997 23.6251 10.4997C23.0571 10.4997 22.506 10.6931 22.0626 11.0481L10.3433 20.4231C10.5484 20.6796 10.8021 20.8931 11.0898 21.0514C11.3776 21.2098 11.6937 21.3099 12.0201 21.3461C12.3465 21.3822 12.6769 21.3537 12.9923 21.2622C13.3077 21.1706 13.6019 21.0178 13.8583 20.8125Z" fill="#24B2A7"/>
<path d="M32.375 21.6006L23.625 14.6006L14.875 21.6006V29.2762C15.0744 29.2619 15.2775 29.25 15.4969 29.25C16.9507 29.2275 18.3769 29.6477 19.5863 30.455C19.8754 30.6421 20.1813 30.802 20.5 30.9325V22.375H26.75V29.3469C27.5783 29.2169 28.4217 29.2169 29.25 29.3469V25.5556L30.3669 25.4356C31.0444 25.3631 31.7138 25.2606 32.375 25.1281V21.6006ZM27.9956 36.75C26.768 36.7266 25.5634 37.0855 24.5487 37.7769C23.729 38.3524 22.7463 38.6497 21.745 38.625C20.7441 38.6496 19.7618 38.3523 18.9425 37.7769C17.9292 37.0861 16.7262 36.7272 15.5 36.75C14.2729 36.7266 13.069 37.0854 12.055 37.7769C11.2351 38.353 10.2518 38.6504 9.25 38.625V39.875C10.4771 39.8984 11.681 39.5395 12.695 38.8481C13.5149 38.2721 14.4983 37.9747 15.5 38C16.5009 37.9754 17.4832 38.2727 18.3025 38.8481C19.3158 39.5389 20.5188 39.8977 21.745 39.875C22.9727 39.8986 24.1773 39.5397 25.1919 38.8481C26.0116 38.2726 26.9944 37.9753 27.9956 38C28.7137 37.9764 29.4266 38.1285 30.0725 38.4431C29.8892 37.9526 29.735 37.4518 29.6106 36.9431C29.0828 36.8099 28.54 36.745 27.9956 36.75Z" fill="#24B2A7"/>
<path d="M15.5 34.875C16.5009 34.8504 17.4832 35.1477 18.3025 35.7231C19.3158 36.4139 20.5188 36.7727 21.745 36.75C22.9727 36.7736 24.1773 36.4147 25.1919 35.7231C26.0116 35.1476 26.9944 34.8503 27.9956 34.875C28.4366 34.8686 28.8766 34.9197 29.3044 35.0269C29.2696 34.6422 29.2514 34.2562 29.25 33.87V33.7387C28.8364 33.6611 28.4164 33.623 27.9956 33.625C26.768 33.6016 25.5634 33.9605 24.5487 34.6519C23.729 35.2274 22.7463 35.5247 21.745 35.5C20.7441 35.5246 19.7618 35.2273 18.9425 34.6519C17.9292 33.9611 16.7262 33.6022 15.5 33.625C14.2729 33.6016 13.069 33.9604 12.055 34.6519C11.2351 35.228 10.2518 35.5254 9.25 35.5V36.75C10.4771 36.7734 11.681 36.4146 12.695 35.7231C13.5149 35.1471 14.4983 34.8497 15.5 34.875Z" fill="#24B2A7"/>
<path d="M15.5 31.75C16.5009 31.7254 17.4832 32.0227 18.3025 32.5981C19.3158 33.2889 20.5188 33.6477 21.745 33.625C22.9727 33.6486 24.1773 33.2897 25.1919 32.5981C26.0116 32.0226 26.9944 31.7253 27.9956 31.75C28.4179 31.7447 28.8392 31.7915 29.25 31.8894V30.6137C28.8364 30.5361 28.4164 30.498 27.9956 30.5C26.768 30.4766 25.5634 30.8355 24.5487 31.5269C23.729 32.1024 22.7463 32.3997 21.745 32.375C20.7441 32.3996 19.7618 32.1023 18.9425 31.5269C17.9292 30.8361 16.7262 30.4773 15.5 30.5C14.2729 30.4766 13.069 30.8354 12.055 31.5269C11.2351 32.1031 10.2518 32.4004 9.25 32.375V33.625C10.4771 33.6484 11.681 33.2896 12.695 32.5981C13.5149 32.0221 14.4983 31.7247 15.5 31.75ZM38.625 24.25C36.0902 25.5552 33.3353 26.3787 30.5 26.6787V33.87C30.5412 36.3975 31.3367 38.855 32.7844 40.9272C34.2321 42.9994 36.266 44.5918 38.625 45.5C40.984 44.5918 43.0179 42.9994 44.4656 40.9272C45.9133 38.855 46.7088 36.3975 46.75 33.87V26.6787C43.9147 26.3788 41.1597 25.5553 38.625 24.25ZM37.1919 38.4419C37.0747 38.559 36.9157 38.6249 36.75 38.6249C36.5843 38.6249 36.4253 38.559 36.3081 38.4419L33.1831 35.3169L34.0669 34.4331L36.75 37.1162L43.1831 30.6831L44.0669 31.5669L37.1919 38.4419Z" fill="#24B2A7"/>
</svg>
