<svg width="27" height="25" viewBox="0 0 27 25" fill="none" xmlns="http://www.w3.org/2000/svg">
<path d="M4.47396 24.1667L1.66203 13.359H0.0292969V7.25287H6.25787L9.31168 0L11.0654 0.659352L8.28366 7.28153H18.715L15.9635 0.659352L17.7172 0L20.771 7.25287H26.9996V13.359H25.3669L22.5549 24.1667H4.47396ZM21.1036 22.3893L23.462 13.3877H3.59712L5.95551 22.3893H21.1036ZM25.125 11.5817V9.08758H1.93415V11.5817H25.125Z" fill="white"/>
<path d="M14.4819 14.8784H12.5771V21.3286H14.4819V14.8784Z" fill="white"/>
<path d="M18.1103 14.8784H16.2055V21.3286H18.1103V14.8784Z" fill="white"/>
<path d="M10.8537 14.8784H8.94884V21.3286H10.8537V14.8784Z" fill="white"/>
</svg>
