<svg width="25" height="25" viewBox="0 0 25 25" fill="none" xmlns="http://www.w3.org/2000/svg">
<path fill-rule="evenodd" clip-rule="evenodd" d="M9.13685 18.578C14.1679 18.578 18.2463 14.6356 18.2463 9.77234C18.2463 4.9091 14.1679 0.966675 9.13685 0.966675C4.10577 0.966675 0.0273438 4.9091 0.0273438 9.77234C0.0273438 14.6356 4.10577 18.578 9.13685 18.578ZM9.13685 16.5061C12.9841 16.5061 16.1029 13.4913 16.1029 9.77234C16.1029 6.05339 12.9841 3.0386 9.13685 3.0386C5.28959 3.0386 2.17076 6.05339 2.17076 9.77234C2.17076 13.4913 5.28959 16.5061 9.13685 16.5061Z" fill="white"/>
<path d="M15.4751 14.4342L24.0278 22.7016L22.5122 24.1667L13.9595 15.8992L15.4751 14.4342Z" fill="white"/>
</svg>
