<svg width="16" height="24" viewBox="0 0 16 24" fill="none" xmlns="http://www.w3.org/2000/svg">
<path d="M7.52847 8.97195C5.01834 8.97195 2.96185 6.95177 2.96185 4.48597C2.99209 2.02017 5.01834 0 7.52847 0C10.0386 0 12.0951 2.02017 12.0951 4.48597C12.0951 6.95177 10.0688 8.97195 7.52847 8.97195ZM7.52847 2.02017C6.13731 2.02017 5.01834 3.11939 5.01834 4.48597C5.01834 5.85256 6.13731 6.95177 7.52847 6.95177C8.91963 6.95177 10.0386 5.85256 10.0386 4.48597C10.0386 3.11939 8.91963 2.02017 7.52847 2.02017Z" fill="white"/>
<path d="M13.0024 23.2V17.6468C13.0024 14.676 10.5527 12.2993 7.55871 12.2993C4.53446 12.2993 2.11506 14.7057 2.11506 17.6468V23.2H0.0283203V17.6468C0.0283203 13.5768 3.38524 10.2791 7.52847 10.2791C11.6717 10.2791 15.0286 13.5768 15.0286 17.6468V23.2H13.0024Z" fill="white"/>
</svg>
